<?xml version="1.0" encoding="UTF-8" standalone="no"?>
<svg
   version="1.1"
   id="Layer_1"
   x="0px"
   y="0px"
   viewBox="0 0 38 24"
   style="enable-background:new 0 0 38 24;"
   xml:space="preserve"
   sodipodi:docname="anyday.svg"
   inkscape:version="1.1 (c4e8f9ed74, 2021-05-24)"
   xmlns:inkscape="http://www.inkscape.org/namespaces/inkscape"
   xmlns:sodipodi="http://sodipodi.sourceforge.net/DTD/sodipodi-0.dtd"
   xmlns="http://www.w3.org/2000/svg"
   xmlns:svg="http://www.w3.org/2000/svg"
   xmlns:rdf="http://www.w3.org/1999/02/22-rdf-syntax-ns#"
   xmlns:cc="http://creativecommons.org/ns#"
   xmlns:dc="http://purl.org/dc/elements/1.1/"><metadata
   id="metadata15"><rdf:RDF><cc:Work
       rdf:about=""><dc:format>image/svg+xml</dc:format><dc:type
         rdf:resource="http://purl.org/dc/dcmitype/StillImage" /><dc:title /></cc:Work></rdf:RDF></metadata><defs
   id="defs13"><clipPath
     id="clip0"><rect
       width="572"
       height="149"
       fill="#ffffff"
       id="rect107"
       x="0"
       y="0" /></clipPath></defs><sodipodi:namedview
   pagecolor="#ffffff"
   bordercolor="#666666"
   borderopacity="1"
   objecttolerance="10"
   gridtolerance="10"
   guidetolerance="10"
   inkscape:pageopacity="0"
   inkscape:pageshadow="2"
   inkscape:window-width="2560"
   inkscape:window-height="1367"
   id="namedview11"
   showgrid="false"
   inkscape:zoom="4.013158"
   inkscape:cx="-82.478686"
   inkscape:cy="18.439344"
   inkscape:window-x="1920"
   inkscape:window-y="39"
   inkscape:window-maximized="1"
   inkscape:current-layer="Layer_1"
   inkscape:document-rotation="0"
   inkscape:pagecheckerboard="0" />
<style
   type="text/css"
   id="style2">
	.st0{opacity:7.000000e-02;enable-background:new    ;}
	.st1{fill:#FFFFFF;}
	.st2{fill:#0F2496;}
</style>
<path
   class="st0"
   d="M35,0H3C1.3,0,0,1.3,0,3v18c0,1.7,1.4,3,3,3h32c1.7,0,3-1.3,3-3V3C38,1.3,36.6,0,35,0z"
   id="path4" />
<path
   class="st1"
   d="M35,1c1.1,0,2,0.9,2,2v18c0,1.1-0.9,2-2,2H3c-1.1,0-2-0.9-2-2V3c0-1.1,0.9-2,2-2H35"
   id="path6" />

<g
   clip-path="url(#clip0)"
   id="g105"
   transform="matrix(0.06058531,0,0,0.06058531,1.6124306,8.3654268)"><path
     d="m 438.354,113.236 c 9.947,0 18.057,-4.132 23.107,-10.1 v 6.57 c 0,1.104 0.896,2 2,2 h 18.965 V 35.193 h -18.965 c -1.104,0 -2,0.8954 -2,2 v 5.4982 c -5.05,-5.3559 -12.854,-9.0285 -22.801,-9.0285 -17.291,0 -37.185,12.7011 -37.185,39.7866 0,26.9327 20.659,39.7867 36.879,39.7867 z m 4.132,-19.2814 c -11.63,0 -20.505,-8.8754 -20.505,-20.6584 0,-11.7829 8.875,-20.5053 20.505,-20.5053 11.324,0 19.587,9.1815 19.587,20.5053 0,11.3239 -8.263,20.6584 -19.587,20.6584 z"
     fill="#151826"
     id="path93" /><path
     d="m 348.99,113.241 c 9.947,0 18.057,-4.131 23.107,-10.099 v 6.569 c 0,1.105 0.895,2 2,2 h 18.964 V 0.00268555 H 372.097 V 42.6967 c -5.05,-5.3559 -12.854,-9.0285 -22.801,-9.0285 -17.292,0 -37.185,12.7011 -37.185,39.7865 0,26.9323 20.658,39.7863 36.879,39.7863 z m 4.132,-19.2809 c -11.63,0 -20.506,-8.8755 -20.506,-20.6584 0,-11.7829 8.876,-20.5054 20.506,-20.5054 11.324,0 19.587,9.1816 19.587,20.5054 0,11.3239 -8.263,20.6584 -19.587,20.6584 z"
     fill="#151826"
     id="path95" /><path
     d="m 195.652,32.1367 c -12.089,0 -21.271,5.246 -26.32,11.367 V 37.163 c 0,-1.1046 -0.896,-2 -2,-2 H 150.51 v 76.547 h 21.576 V 71.4642 c 0,-13.6193 6.427,-21.5766 17.598,-21.5766 10.865,0 15.915,7.0392 15.915,20.3524 v 41.47 h 21.576 V 69.0158 c 0,-28.6157 -15.455,-36.8791 -31.523,-36.8791 z"
     fill="#151826"
     id="path97" /><path
     fill-rule="evenodd"
     clip-rule="evenodd"
     d="M 62.9218,111.708 H 40.7332 L 53.1917,76.5934 C 41.5814,67.5817 24.8056,68.4076 14.1421,79.0711 L 0,64.9289 C 16.2895,48.6394 41.0908,46.0494 60.087,57.1588 L 80.3667,0 H 101.79 l 39.634,111.708 H 119.235 L 111.454,89.2307 C 98.531,95.0519 83.6252,95.0538 70.7005,89.2364 Z M 77.2884,70.202 c 1.2792,0.6734 2.5974,1.2467 3.943,1.7198 6.3562,2.2349 13.3231,2.2349 19.6796,0 1.35,-0.4746 2.672,-1.0501 3.955,-1.7263 L 91.0784,30.299 Z"
     fill="#151826"
     id="path99" /><path
     d="m 244.832,148.949 h 17.976 c 2.05,0 3.892,-1.251 4.648,-3.156 L 311.444,34.9127 h -22.152 l -17.94,48.048 -19.188,-48.048 H 229.7 l 31.044,74.5683 z"
     fill="#151826"
     id="path101" /><path
     d="m 505.402,149.149 h 17.977 c 2.05,0 3.892,-1.251 4.647,-3.157 L 572.014,35.1127 h -22.152 l -17.94,48.048 -19.188,-48.048 H 490.27 l 31.044,74.5683 z"
     fill="#151826"
     id="path103" /></g></svg>
