<?xml version="1.0" encoding="UTF-8" standalone="no"?>
<svg
   xmlns:dc="http://purl.org/dc/elements/1.1/"
   xmlns:cc="http://creativecommons.org/ns#"
   xmlns:rdf="http://www.w3.org/1999/02/22-rdf-syntax-ns#"
   xmlns:svg="http://www.w3.org/2000/svg"
   xmlns="http://www.w3.org/2000/svg"
   xmlns:sodipodi="http://sodipodi.sourceforge.net/DTD/sodipodi-0.dtd"
   xmlns:inkscape="http://www.inkscape.org/namespaces/inkscape"
   version="1.1"
   id="Layer_1"
   x="0px"
   y="0px"
   viewBox="0 0 38 24"
   style="enable-background:new 0 0 38 24;"
   xml:space="preserve"
   sodipodi:docname="anyday.svg"
   inkscape:version="1.0.1 (3bc2e813f5, 2020-09-07)"><metadata
   id="metadata15"><rdf:RDF><cc:Work
       rdf:about=""><dc:format>image/svg+xml</dc:format><dc:type
         rdf:resource="http://purl.org/dc/dcmitype/StillImage" /><dc:title></dc:title></cc:Work></rdf:RDF></metadata><defs
   id="defs13" /><sodipodi:namedview
   pagecolor="#ffffff"
   bordercolor="#666666"
   borderopacity="1"
   objecttolerance="10"
   gridtolerance="10"
   guidetolerance="10"
   inkscape:pageopacity="0"
   inkscape:pageshadow="2"
   inkscape:window-width="1920"
   inkscape:window-height="1146"
   id="namedview11"
   showgrid="false"
   inkscape:zoom="8.026316"
   inkscape:cx="18.39427"
   inkscape:cy="0.087719217"
   inkscape:window-x="1920"
   inkscape:window-y="29"
   inkscape:window-maximized="1"
   inkscape:current-layer="Layer_1"
   inkscape:document-rotation="0" />
<style
   type="text/css"
   id="style2">
	.st0{opacity:7.000000e-02;enable-background:new    ;}
	.st1{fill:#FFFFFF;}
	.st2{fill:#0F2496;}
</style>
<path
   class="st0"
   d="M35,0H3C1.3,0,0,1.3,0,3v18c0,1.7,1.4,3,3,3h32c1.7,0,3-1.3,3-3V3C38,1.3,36.6,0,35,0z"
   id="path4" />
<path
   class="st1"
   d="M35,1c1.1,0,2,0.9,2,2v18c0,1.1-0.9,2-2,2H3c-1.1,0-2-0.9-2-2V3c0-1.1,0.9-2,2-2H35"
   id="path6" />

<g
   id="Layer_2"
   data-name="Layer 2"
   transform="matrix(0.35335594,0,0,0.35335594,3.2456254,7.3025456)"><g
     id="Layer_1-2"
     data-name="Layer 1"><path
       d="m 29,17 a 12.51,12.51 0 0 0 2.54,2.8 5.87,5.87 0 0 0 3.5,1 5.47,5.47 0 0 0 2,-0.32 4.09,4.09 0 0 0 1.51,-1 2.19,2.19 0 0 0 0.64,-1.52 2.54,2.54 0 0 0 -1.28,-2.33 10.82,10.82 0 0 0 -3.57,-1.28 10.69,10.69 0 0 1 -4.7,-2.08 5.55,5.55 0 0 1 -1.83,-4.48 4.77,4.77 0 0 1 1,-3.13 6.74,6.74 0 0 1 2.69,-2.1 9.71,9.71 0 0 1 7.88,0.24 7.86,7.86 0 0 1 2.86,2.72 L 39.93,7.77 A 7,7 0 0 0 37.87,5.52 4.89,4.89 0 0 0 35,4.64 a 4.56,4.56 0 0 0 -2.78,0.8 2.48,2.48 0 0 0 -1.12,2.17 2.4,2.4 0 0 0 1.2,2.24 9.32,9.32 0 0 0 3.1,1.15 14.91,14.91 0 0 1 3.34,1.12 8.09,8.09 0 0 1 2.63,1.88 4.17,4.17 0 0 1 1,2.89 6.14,6.14 0 0 1 -2.07,4.8 8.25,8.25 0 0 1 -5.65,1.76 10.34,10.34 0 0 1 -4.45,-1 9.18,9.18 0 0 1 -3.5,-3.12 z"
       id="path2-3" /><path
       d="m 54.25,7.21 a 6.59,6.59 0 0 1 3.74,1 7.68,7.68 0 0 1 2.63,2.88 9.08,9.08 0 0 1 1,4.24 9.09,9.09 0 0 1 -1,4.25 7.13,7.13 0 0 1 -2.62,2.92 6.51,6.51 0 0 1 -3.66,1 6.24,6.24 0 0 1 -3,-0.72 7.73,7.73 0 0 1 -2.15,-1.68 V 30 h -3.1 V 7.45 h 3.1 V 9.77 A 5.74,5.74 0 0 1 51.23,8 6.54,6.54 0 0 1 54.25,7.21 Z m -0.4,2.88 a 4.69,4.69 0 0 0 -2.54,0.72 5.8,5.8 0 0 0 -1.75,1.92 6.12,6.12 0 0 0 0,5.45 4.78,4.78 0 0 0 4.29,2.64 4.27,4.27 0 0 0 2.47,-0.72 4.87,4.87 0 0 0 1.68,-1.92 6.12,6.12 0 0 0 0,-5.45 4.87,4.87 0 0 0 -1.67,-1.92 4.27,4.27 0 0 0 -2.48,-0.72 z"
       id="path4-6" /><path
       d="M 64.83,23.38 V 1 h 3.11 v 22.38 z"
       id="path6-7" /><path
       d="M 74.3,4 A 2,2 0 0 1 72.71,3.44 2.09,2.09 0 0 1 72.23,2 2.17,2.17 0 0 1 72.71,0.64 2,2 0 0 1 74.3,0 2.05,2.05 0 0 1 75.89,0.56 1.77,1.77 0 0 1 76.37,2 2.17,2.17 0 0 1 75.89,3.36 1.85,1.85 0 0 1 74.3,4 Z m 1.59,19.38 h -3.1 V 7.45 h 3.1 z"
       id="path8" /><path
       d="M 85.52,23.38 H 82.41 V 10.49 h -3.26 v -3 h 3.26 v -4 h 3.11 v 4.04 h 3.65 v 3 h -3.65 z"
       id="path10-5" /><path
       d="M 22,23.38 H 18.1 L 10.9,6.49 5.25,19.94 H 11 a 3.37,3.37 0 0 1 3.34,3.36 H 0 L 9.23,2 h 3.42 z"
       id="path12" /></g></g></svg>
