<?xml version="1.0" encoding="UTF-8" standalone="no"?>
<!-- Generator: Adobe Illustrator 21.1.0, SVG Export Plug-In . SVG Version: 6.00 Build 0)  -->

<svg
   xmlns:dc="http://purl.org/dc/elements/1.1/"
   xmlns:cc="http://creativecommons.org/ns#"
   xmlns:rdf="http://www.w3.org/1999/02/22-rdf-syntax-ns#"
   xmlns:svg="http://www.w3.org/2000/svg"
   xmlns="http://www.w3.org/2000/svg"
   xmlns:sodipodi="http://sodipodi.sourceforge.net/DTD/sodipodi-0.dtd"
   xmlns:inkscape="http://www.inkscape.org/namespaces/inkscape"
   version="1.1"
   id="Layer_1"
   x="0px"
   y="0px"
   viewBox="0 0 38 24"
   style="enable-background:new 0 0 38 24;"
   xml:space="preserve"
   sodipodi:docname="discover.svg"
   inkscape:version="0.92.4 5da689c313, 2019-01-14"><metadata
   id="metadata15"><rdf:RDF><cc:Work
       rdf:about=""><dc:format>image/svg+xml</dc:format><dc:type
         rdf:resource="http://purl.org/dc/dcmitype/StillImage" /><dc:title></dc:title></cc:Work></rdf:RDF></metadata><defs
   id="defs13" /><sodipodi:namedview
   pagecolor="#ffffff"
   bordercolor="#666666"
   borderopacity="1"
   objecttolerance="10"
   gridtolerance="10"
   guidetolerance="10"
   inkscape:pageopacity="0"
   inkscape:pageshadow="2"
   inkscape:window-width="1920"
   inkscape:window-height="1176"
   id="namedview11"
   showgrid="false"
   inkscape:zoom="16.052632"
   inkscape:cx="13.32992"
   inkscape:cy="14.963997"
   inkscape:window-x="0"
   inkscape:window-y="0"
   inkscape:window-maximized="1"
   inkscape:current-layer="Layer_1" />
<style
   type="text/css"
   id="style2">
	.st0{opacity:7.000000e-02;enable-background:new    ;}
	.st1{fill:#FFFFFF;}
	.st2{fill:#0F2496;}
</style>
<path
   class="st0"
   d="M35,0H3C1.3,0,0,1.3,0,3v18c0,1.7,1.4,3,3,3h32c1.7,0,3-1.3,3-3V3C38,1.3,36.6,0,35,0z"
   id="path4" />
<path
   class="st1"
   d="M35,1c1.1,0,2,0.9,2,2v18c0,1.1-0.9,2-2,2H3c-1.1,0-2-0.9-2-2V3c0-1.1,0.9-2,2-2H35"
   id="path6" />

<g
   id="g26714"><path
     id="path26047"
     d="M 37 15.285156 C 34.665077 16.723892 28.352315 20.237949 18.310547 23 L 35 23 C 36.1 23 37 22.1 37 21 L 37 15.285156 z "
     style="fill:#f46f1b;fill-opacity:1;fill-rule:nonzero;stroke:none;stroke-width:0.02114274" /><path
     d="m 4.9559262,13.314899 c -0.3353239,0.302975 -0.7710757,0.435117 -1.4607518,0.435117 h -0.286484 v -3.618997 h 0.286484 c 0.6896761,0 1.1083023,0.123473 1.4607518,0.442729 0.3691522,0.328557 0.591151,0.838096 0.591151,1.362223 0,0.525397 -0.2219988,1.05037 -0.591151,1.378928 M 3.7089275,9.2039105 H 2.1420392 v 5.4723685 h 1.5586426 c 0.8287954,0 1.4271349,-0.195358 1.9525318,-0.631745 0.6243451,-0.516517 0.9934973,-1.295203 0.9934973,-2.100528 0,-1.615091 -1.2066161,-2.7400955 -2.9377834,-2.7400955"
     style="fill:#231f20;fill-opacity:1;fill-rule:nonzero;stroke:none;stroke-width:0.02114274"
     id="path26051"
     inkscape:connector-curvature="0" /><path
     d="M 7.1378568,14.676491 H 8.2053176 V 9.2039105 H 7.1378568 Z"
     style="fill:#231f20;fill-opacity:1;fill-rule:nonzero;stroke:none;stroke-width:0.02114274"
     id="path26053"
     inkscape:connector-curvature="0" /><path
     d="m 10.815423,11.304016 c -0.640624,-0.237009 -0.8285823,-0.393254 -0.8285823,-0.68904 0,-0.344627 0.3351113,-0.606585 0.7951773,-0.606585 0.319678,0 0.582693,0.131508 0.86072,0.443151 L 12.20133,9.7202155 c -0.459009,-0.4015 -1.008086,-0.606585 -1.608117,-0.606585 -0.9683361,0 -1.7068519,0.672339 -1.7068519,1.5679435 0,0.75395 0.343781,1.139805 1.3463689,1.50071 0.417991,0.147576 0.630687,0.245679 0.737881,0.311433 0.21333,0.139329 0.320101,0.336802 0.320101,0.566413 0,0.443573 -0.35245,0.772131 -0.828795,0.772131 -0.5091162,0 -0.9192854,-0.254981 -1.1649639,-0.730269 L 8.607277,13.766085 c 0.49178,0.722235 1.0825081,1.042125 1.894811,1.042125 1.109148,0 1.887412,-0.73767 1.887412,-1.79692 0,-0.869811 -0.35985,-1.263065 -1.574077,-1.707274"
     style="fill:#231f20;fill-opacity:1;fill-rule:nonzero;stroke:none;stroke-width:0.02114274"
     id="path26055"
     inkscape:connector-curvature="0" /><path
     d="m 12.726304,11.944006 c 0,1.608537 1.263067,2.855747 2.888521,2.855747 0.459431,0 0.853109,-0.09028 1.338335,-0.318832 v -1.256513 c -0.426661,0.427083 -0.804693,0.599396 -1.28865,0.599396 -1.075108,0 -1.83815,-0.779532 -1.83815,-1.887833 0,-1.05058 0.787144,-1.879375 1.788465,-1.879375 0.509117,0 0.894549,0.181616 1.338335,0.615676 V 9.4163945 c -0.468523,-0.237644 -0.853744,-0.336169 -1.313175,-0.336169 -1.617209,0 -2.913681,1.2725805 -2.913681,2.8637805"
     style="fill:#231f20;fill-opacity:1;fill-rule:nonzero;stroke:none;stroke-width:0.02114274"
     id="path26057"
     inkscape:connector-curvature="0" /><path
     d="M 25.416809,12.879782 23.957538,9.2039105 h -1.166234 l 2.322318,5.6129685 h 0.574449 l 2.36418,-5.6129685 H 26.89511"
     style="fill:#231f20;fill-opacity:1;fill-rule:nonzero;stroke:none;stroke-width:0.02114274"
     id="path26059"
     inkscape:connector-curvature="0" /><path
     d="m 28.53494,14.676491 h 3.027218 v -0.926475 h -1.960567 v -1.477241 h 1.888469 v -0.926897 h -1.888469 v -1.214859 h 1.960567 V 9.2039105 H 28.53494"
     style="fill:#231f20;fill-opacity:1;fill-rule:nonzero;stroke:none;stroke-width:0.02114274"
     id="path26061"
     inkscape:connector-curvature="0" /><path
     d="m 33.647253,11.723276 h -0.311854 v -1.657377 h 0.328769 c 0.664939,0 1.026269,0.27845 1.026269,0.811246 0,0.550133 -0.36133,0.846131 -1.043184,0.846131 m 2.141548,-0.903851 c 0,-1.0243645 -0.705744,-1.6155145 -1.936674,-1.6155145 h -1.582956 v 5.4725805 h 1.066228 V 12.47786 h 0.13933 l 1.477454,2.198631 h 1.312753 l -1.722921,-2.305402 c 0.804057,-0.163434 1.246786,-0.713567 1.246786,-1.551664"
     style="fill:#231f20;fill-opacity:1;fill-rule:nonzero;stroke:none;stroke-width:0.02114274"
     id="path26063"
     inkscape:connector-curvature="0" /><path
     d="m 23.111827,11.943794 c 0,1.607058 -1.301968,2.909662 -2.909874,2.909662 -1.60706,0 -2.909664,-1.302604 -2.909664,-2.909662 0,-1.607268 1.302604,-2.9098715 2.909664,-2.9098715 1.607906,0 2.909874,1.3026035 2.909874,2.9098715"
     style="fill:#f46f1b;fill-opacity:1;fill-rule:nonzero;stroke:none;stroke-width:0.02114274"
     id="path26065"
     inkscape:connector-curvature="0" /><path
     d="m 36.156263,9.3781265 h -0.01945 v -0.1258 h 0.02072 c 0.05645,0 0.08626,0.02051 0.08626,0.06195 0,0.0425 -0.03023,0.06385 -0.08753,0.06385 m 0.202336,-0.06575 c 0,-0.09578 -0.06597,-0.148211 -0.182039,-0.148211 h -0.154554 v 0.480997 h 0.114805 v -0.18669 l 0.134679,0.18669 h 0.139965 l -0.158147,-0.198318 c 0.06766,-0.0184 0.105291,-0.06766 0.105291,-0.134468"
     style="fill:#231f20;fill-opacity:1;fill-rule:nonzero;stroke:none;stroke-width:0.02114274"
     id="path26067"
     inkscape:connector-curvature="0" /><path
     d="m 36.197913,9.7481245 c -0.183729,0 -0.334054,-0.153074 -0.334054,-0.343781 0,-0.191553 0.148209,-0.344415 0.334054,-0.344415 0.182886,0 0.331942,0.156244 0.331942,0.344415 0,0.189227 -0.149056,0.343781 -0.331942,0.343781 m 0.0019,-0.763676 c -0.23405,0 -0.419472,0.186267 -0.419472,0.41926 0,0.232782 0.187537,0.419261 0.419472,0.419261 0.227285,0 0.413552,-0.188593 0.413552,-0.419261 0,-0.22961 -0.186267,-0.41926 -0.413552,-0.41926"
     style="fill:#231f20;fill-opacity:1;fill-rule:nonzero;stroke:none;stroke-width:0.02114274"
     id="path26069"
     inkscape:connector-curvature="0" /></g></svg>