<?xml version="1.0" encoding="utf-8"?>
<!-- Generator: Adobe Illustrator 21.1.0, SVG Export Plug-In . SVG Version: 6.00 Build 0)  -->
<svg version="1.1" id="Layer_1" xmlns="http://www.w3.org/2000/svg" xmlns:xlink="http://www.w3.org/1999/xlink" x="0px" y="0px"
	 viewBox="0 0 38 24" style="enable-background:new 0 0 38 24;" xml:space="preserve">
<style type="text/css">
	.st0{opacity:7.000000e-02;enable-background:new    ;}
	.st1{fill:#FFFFFF;}
	.st2{fill:#6093CA;}
</style>
<path class="st0" d="M35,0H3C1.3,0,0,1.3,0,3v18c0,1.7,1.4,3,3,3h32c1.7,0,3-1.3,3-3V3C38,1.3,36.6,0,35,0z"/>
<path class="st1" d="M35,1c1.1,0,2,0.9,2,2v18c0,1.1-0.9,2-2,2H3c-1.1,0-2-0.9-2-2V3c0-1.1,0.9-2,2-2H35"/>
<g id="diners_club_1_">
	<g>
		<path class="st2" d="M26.3,12c0,5.9-2.8,7.6-7.2,7.6c-5.6,0-7.2-1.1-7.2-7.6c0-5.8,1.7-7.6,7.2-7.6C25.2,4.4,26.3,7.4,26.3,12z"/>
		<path class="st1" d="M22.5,8.2V4.9c-0.5-0.1-1-0.2-1.5-0.3c-2.4,0.2-4.3,1-4.3,5.7H12c0,0.5-0.1,1.1-0.1,1.7c0,0.3,0,0.6,0,0.9
			h4.7c0,0,0,1.3,0,1.9c0,0.6-0.7,1.5-1.7,1.5l0,2.8c0.5,0.2,1.1,0.3,1.8,0.4c1.5-0.2,3.1-1.3,3.1-4.9c0-1,0-1.7,0-1.7h2.7v-2.6
			h-2.7C19.8,8.3,21.4,8.2,22.5,8.2z"/>
	</g>
</g>
</svg>
