<?xml version="1.0" encoding="UTF-8" standalone="no"?>
<svg
   xmlns:dc="http://purl.org/dc/elements/1.1/"
   xmlns:cc="http://creativecommons.org/ns#"
   xmlns:rdf="http://www.w3.org/1999/02/22-rdf-syntax-ns#"
   xmlns:svg="http://www.w3.org/2000/svg"
   xmlns="http://www.w3.org/2000/svg"
   xmlns:sodipodi="http://sodipodi.sourceforge.net/DTD/sodipodi-0.dtd"
   xmlns:inkscape="http://www.inkscape.org/namespaces/inkscape"
   version="1.1"
   id="Layer_1"
   x="0px"
   y="0px"
   viewBox="0 0 38 24"
   style="enable-background:new 0 0 38 24;"
   xml:space="preserve"
   sodipodi:docname="generic.svg"
   inkscape:version="1.0.1 (3bc2e813f5, 2020-09-07)"><metadata
   id="metadata15"><rdf:RDF><cc:Work
       rdf:about=""><dc:format>image/svg+xml</dc:format><dc:type
         rdf:resource="http://purl.org/dc/dcmitype/StillImage" /><dc:title></dc:title></cc:Work></rdf:RDF></metadata><defs
   id="defs13" /><sodipodi:namedview
   pagecolor="#ffffff"
   bordercolor="#666666"
   borderopacity="1"
   objecttolerance="10"
   gridtolerance="10"
   guidetolerance="10"
   inkscape:pageopacity="0"
   inkscape:pageshadow="2"
   inkscape:window-width="1920"
   inkscape:window-height="1175"
   id="namedview11"
   showgrid="false"
   inkscape:zoom="22.627417"
   inkscape:cx="21.293234"
   inkscape:cy="18.106103"
   inkscape:window-x="1920"
   inkscape:window-y="0"
   inkscape:window-maximized="1"
   inkscape:current-layer="Layer_1"
   inkscape:document-rotation="0" />
<style
   type="text/css"
   id="style2">
	.st0{opacity:7.000000e-02;enable-background:new    ;}
	.st1{fill:#FFFFFF;}
	.st2{fill:#0F2496;}
</style>
<path
   class="st0"
   d="M35,0H3C1.3,0,0,1.3,0,3v18c0,1.7,1.4,3,3,3h32c1.7,0,3-1.3,3-3V3C38,1.3,36.6,0,35,0z"
   id="path4" />
<path
   class="st1"
   d="M35,1c1.1,0,2,0.9,2,2v18c0,1.1-0.9,2-2,2H3c-1.1,0-2-0.9-2-2V3c0-1.1,0.9-2,2-2H35"
   id="path6" />

<rect
   style="opacity:1;fill:#fb617f;fill-opacity:1;stroke:none;stroke-width:0.528359;stroke-linecap:round;stroke-linejoin:round;stroke-miterlimit:4;stroke-dasharray:none;stroke-opacity:1"
   id="rect837"
   width="9.4447594"
   height="4.7517557"
   x="2.8038242"
   y="2.8494651"
   ry="2.3"
   rx="2.3" /><rect
   style="opacity:1;fill:#cccccc;fill-opacity:1;stroke:none;stroke-width:0.327039;stroke-linecap:round;stroke-linejoin:round;stroke-miterlimit:4;stroke-dasharray:none;stroke-opacity:1"
   id="rect834"
   width="8.3707314"
   height="2.054112"
   x="2.8038242"
   y="19.123705"
   ry="1"
   rx="1" /><rect
   style="opacity:1;fill:#cccccc;fill-opacity:1;stroke:none;stroke-width:0.277104;stroke-linecap:round;stroke-linejoin:round;stroke-miterlimit:4;stroke-dasharray:none;stroke-opacity:1"
   id="rect836"
   width="6.009644"
   height="2.054112"
   x="2.8038242"
   y="15.069593"
   ry="1"
   rx="1" /><rect
   style="opacity:1;fill:#cccccc;fill-opacity:1;stroke:none;stroke-width:0.277104;stroke-linecap:round;stroke-linejoin:round;stroke-miterlimit:4;stroke-dasharray:none;stroke-opacity:1"
   id="rect848"
   width="6.009644"
   height="2.054112"
   x="9.9183235"
   y="15.069593"
   ry="1"
   rx="1" /><rect
   style="opacity:1;fill:#cccccc;fill-opacity:1;stroke:none;stroke-width:0.277104;stroke-linecap:round;stroke-linejoin:round;stroke-miterlimit:4;stroke-dasharray:none;stroke-opacity:1"
   id="rect850"
   width="6.009644"
   height="2.054112"
   x="17.032801"
   y="15.069593"
   ry="1"
   rx="1" /><rect
   style="opacity:1;fill:#cccccc;fill-opacity:1;stroke:none;stroke-width:0.277104;stroke-linecap:round;stroke-linejoin:round;stroke-miterlimit:4;stroke-dasharray:none;stroke-opacity:1"
   id="rect852"
   width="6.009644"
   height="2.054112"
   x="24.147299"
   y="15.069593"
   ry="1"
   rx="1" /><rect
   style="opacity:1;fill:#cccccc;fill-opacity:1;stroke:none;stroke-width:0.399657;stroke-linecap:round;stroke-linejoin:round;stroke-miterlimit:4;stroke-dasharray:none;stroke-opacity:1"
   id="rect854"
   width="12.500793"
   height="2.054112"
   x="12.235217"
   y="19.123705"
   ry="1"
   rx="1" /></svg>
