<?xml version="1.0" encoding="utf-8"?>
<!-- Generator: Adobe Illustrator 21.1.0, SVG Export Plug-In . SVG Version: 6.00 Build 0)  -->
<svg version="1.1" id="Layer_1" xmlns="http://www.w3.org/2000/svg" xmlns:xlink="http://www.w3.org/1999/xlink" x="0px" y="0px"
	 viewBox="0 0 38 24" style="enable-background:new 0 0 38 24;" xml:space="preserve">
<style type="text/css">
	.st0{opacity:7.000000e-02;enable-background:new    ;}
	.st1{fill:#FFFFFF;}
	.st2{display:none;fill:#0F2496;}
	.st3{fill:url(#SVGID_1_);}
	.st4{fill:url(#SVGID_2_);}
	.st5{fill:url(#SVGID_3_);}
	.st6{fill:url(#SVGID_4_);}
	.st7{fill:url(#SVGID_5_);}
</style>
<path class="st0" d="M35,0H3C1.3,0,0,1.3,0,3v18c0,1.7,1.4,3,3,3h32c1.7,0,3-1.3,3-3V3C38,1.3,36.6,0,35,0z"/>
<path class="st1" d="M35,1c1.1,0,2,0.9,2,2v18c0,1.1-0.9,2-2,2H3c-1.1,0-2-0.9-2-2V3c0-1.1,0.9-2,2-2H35"/>
<path class="st2" d="M15.8,7.9L14.1,16h2.1L18,7.9H15.8z M29.5,7.9h-1.8c-0.4,0-0.8,0.2-0.9,0.6L23.6,16h2.2l0.4-1.2H29l0.3,1.2h2
	L29.5,7.9L29.5,7.9z M26.9,13.2l1.1-3.1l0.6,3.1L26.9,13.2L26.9,13.2z M12.7,7.9l-2.2,5.5L9.6,8.7c-0.1-0.5-0.5-0.8-1-0.8H5v0.2
	c0.7,0.2,1.6,0.4,2.1,0.7C7.4,9,7.5,9.1,7.6,9.5L9.3,16h2.2l3.4-8.1L12.7,7.9L12.7,7.9z M20.8,10.2c0-0.3,0.3-0.6,0.9-0.7
	c0.3,0,1.1-0.1,2.1,0.4l0.4-1.7c-0.5-0.2-1.2-0.4-2-0.4c-2.1,0-3.6,1.1-3.6,2.7c0,1.2,1.1,1.8,1.8,2.2c0.8,0.4,1.1,0.7,1.1,1
	c0,0.5-0.7,0.8-1.3,0.8c-1.1,0-1.7-0.3-2.2-0.5l-0.4,1.8c0.5,0.2,1.4,0.4,2.4,0.4c2.2,0,3.7-1.1,3.7-2.8
	C23.7,11.3,20.7,11.1,20.8,10.2L20.8,10.2z"/>
<g>
	<g>
		<path class="st1" d="M30,17.2c0,1.9-1.5,3.4-3.4,3.4H7.9V7.1c0-1.9,1.5-3.4,3.4-3.4H30V17.2z"/>
		<g>
			
				<linearGradient id="SVGID_1_" gradientUnits="userSpaceOnUse" x1="0.947" y1="45.8294" x2="6.3446" y2="45.8294" gradientTransform="matrix(1.125 0 0 -1.125 21.6495 64.6385)">
				<stop  offset="0" style="stop-color:#007940"/>
				<stop  offset="0.2285" style="stop-color:#00873F"/>
				<stop  offset="0.7433" style="stop-color:#40A737"/>
				<stop  offset="1" style="stop-color:#5CB531"/>
			</linearGradient>
			<path class="st3" d="M23.9,13.7h1.4c0,0,0.1,0,0.2,0c0.3-0.1,0.5-0.3,0.5-0.6c0-0.3-0.2-0.6-0.5-0.6c0,0-0.1,0-0.2,0h-1.4V13.7z"
				/>
			
				<linearGradient id="SVGID_2_" gradientUnits="userSpaceOnUse" x1="0.9472" y1="46.6641" x2="6.3396" y2="46.6641" gradientTransform="matrix(1.125 0 0 -1.125 21.6495 64.6385)">
				<stop  offset="0" style="stop-color:#007940"/>
				<stop  offset="0.2285" style="stop-color:#00873F"/>
				<stop  offset="0.7433" style="stop-color:#40A737"/>
				<stop  offset="1" style="stop-color:#5CB531"/>
			</linearGradient>
			<path class="st4" d="M25.2,4.8c-1.4,0-2.5,1.1-2.5,2.5v2.6h3.5c0.1,0,0.2,0,0.2,0c0.8,0,1.4,0.4,1.4,1.1c0,0.6-0.4,1-1.1,1.1v0
				c0.8,0.1,1.4,0.5,1.4,1.2c0,0.7-0.7,1.2-1.6,1.2h-3.8v5h3.6c1.4,0,2.5-1.1,2.5-2.5V4.8H25.2z"/>
			
				<linearGradient id="SVGID_3_" gradientUnits="userSpaceOnUse" x1="0.947" y1="47.5828" x2="6.3441" y2="47.5828" gradientTransform="matrix(1.125 0 0 -1.125 21.6495 64.6385)">
				<stop  offset="0" style="stop-color:#007940"/>
				<stop  offset="0.2285" style="stop-color:#00873F"/>
				<stop  offset="0.7433" style="stop-color:#40A737"/>
				<stop  offset="1" style="stop-color:#5CB531"/>
			</linearGradient>
			<path class="st5" d="M25.8,11.1c0-0.3-0.2-0.5-0.5-0.6c0,0-0.1,0-0.1,0h-1.3v1.2h1.3c0,0,0.1,0,0.1,0
				C25.6,11.6,25.8,11.4,25.8,11.1z"/>
		</g>
		
			<linearGradient id="SVGID_4_" gradientUnits="userSpaceOnUse" x1="-11.1352" y1="46.6701" x2="-5.6547" y2="46.6701" gradientTransform="matrix(1.125 0 0 -1.125 21.6495 64.6385)">
			<stop  offset="0" style="stop-color:#1F286F"/>
			<stop  offset="0.4751" style="stop-color:#004E94"/>
			<stop  offset="0.8261" style="stop-color:#0066B1"/>
			<stop  offset="1" style="stop-color:#006FBC"/>
		</linearGradient>
		<path class="st6" d="M11.6,4.8c-1.4,0-2.5,1.1-2.5,2.5v6.1c0.7,0.3,1.4,0.6,2.1,0.6c0.9,0,1.3-0.5,1.3-1.2V9.8h2.1v2.9
			c0,1.1-0.7,2-3,2c-1.4,0-2.5-0.3-2.5-0.3v5.2h3.6c1.4,0,2.5-1.1,2.5-2.5V4.8H11.6z"/>
		
			<linearGradient id="SVGID_5_" gradientUnits="userSpaceOnUse" x1="-5.1228" y1="46.6581" x2="0.1999" y2="46.6581" gradientTransform="matrix(1.125 0 0 -1.125 21.6495 64.6385)">
			<stop  offset="0" style="stop-color:#6C2C2F"/>
			<stop  offset="0.1735" style="stop-color:#882730"/>
			<stop  offset="0.5731" style="stop-color:#BE1833"/>
			<stop  offset="0.8585" style="stop-color:#DC0436"/>
			<stop  offset="1" style="stop-color:#E60039"/>
		</linearGradient>
		<path class="st7" d="M18.4,4.8c-1.4,0-2.5,1.1-2.5,2.5v3.2c0.6-0.5,1.7-0.9,3.4-0.8c0.9,0,1.9,0.3,1.9,0.3v1
			c-0.5-0.3-1.1-0.5-1.9-0.5c-1.3-0.1-2.1,0.6-2.1,1.7c0,1.1,0.8,1.8,2.1,1.7c0.8-0.1,1.4-0.3,1.9-0.5v1c0,0-1,0.3-1.9,0.3
			c-1.7,0.1-2.8-0.3-3.4-0.8v5.7h3.6c1.4,0,2.5-1.1,2.5-2.5V4.8H18.4z"/>
	</g>
</g>
</svg>
