<?xml version="1.0" encoding="utf-8"?>
<!-- Generator: Adobe Illustrator 21.1.0, SVG Export Plug-In . SVG Version: 6.00 Build 0)  -->
<svg version="1.1" id="Layer_1" xmlns="http://www.w3.org/2000/svg" xmlns:xlink="http://www.w3.org/1999/xlink" x="0px" y="0px"
	 viewBox="0 0 38 24" style="enable-background:new 0 0 38 24;" xml:space="preserve">
<style type="text/css">
	.st0{opacity:7.000000e-02;enable-background:new    ;}
	.st1{fill:#FFFFFF;}
	.st2{fill:#3A9BD9;}
	.st3{fill:#CC2131;}
</style>
<path class="st0" d="M35,0H3C1.3,0,0,1.3,0,3v18c0,1.7,1.4,3,3,3h32c1.7,0,3-1.3,3-3V3C38,1.3,36.6,0,35,0z"/>
<path class="st1" d="M35,1c1.1,0,2,0.9,2,2v18c0,1.1-0.9,2-2,2H3c-1.1,0-2-0.9-2-2V3c0-1.1,0.9-2,2-2H35"/>
<g>
	<path class="st2" d="M19.4,17.5c1.5-1.4,2.4-3.4,2.4-5.5c0-2.1-0.9-4.1-2.4-5.5c-1.3-1.2-3-1.9-4.9-1.9c-4,0-7.3,3.3-7.3,7.4
		c0,4.1,3.3,7.4,7.3,7.4C16.3,19.4,18.1,18.7,19.4,17.5z"/>
	<path class="st3" d="M24.3,4.6c-1.9,0-3.6,0.7-4.9,1.9c-0.3,0.2-0.5,0.5-0.7,0.8h1.5c0.2,0.2,0.4,0.5,0.6,0.8h-2.6
		c-0.2,0.3-0.3,0.5-0.4,0.8h3.4c0.1,0.3,0.2,0.5,0.3,0.8h-4.1c-0.1,0.3-0.2,0.5-0.2,0.8h4.5c0.1,0.5,0.2,1,0.2,1.6
		c0,0.8-0.1,1.6-0.4,2.3h-4.1c0.1,0.3,0.2,0.5,0.3,0.8h3.4c-0.1,0.3-0.3,0.5-0.4,0.8h-2.6c0.2,0.3,0.4,0.5,0.6,0.8h1.5
		c-0.2,0.3-0.5,0.5-0.7,0.8c1.3,1.2,3,1.9,4.9,1.9c4,0,7.3-3.3,7.3-7.4C31.6,7.9,28.3,4.6,24.3,4.6L24.3,4.6z"/>
	<path class="st3" d="M30.6,16.1c0-0.1,0.1-0.2,0.2-0.2c0.1,0,0.2,0.1,0.2,0.2c0,0.1-0.1,0.2-0.2,0.2C30.7,16.4,30.6,16.2,30.6,16.1
		z M30.9,16.3c0.1,0,0.2-0.1,0.2-0.2s-0.1-0.2-0.2-0.2c-0.1,0-0.2,0.1-0.2,0.2S30.8,16.3,30.9,16.3z M30.8,16.2L30.8,16.2l0-0.2h0.1
		c0,0,0,0,0.1,0c0,0,0,0,0,0.1C31,16.1,30.9,16.1,30.8,16.2l0.1,0L30.8,16.2L30.8,16.2L30.8,16.2L30.8,16.2l0-0.1h0c0,0,0,0,0,0
		c0,0,0,0,0,0c0,0,0,0,0,0c0,0,0,0,0,0h0L30.8,16.2L30.8,16.2z"/>
	<path class="st1" d="M29.1,13.6c0-0.1,0.1-0.2,0.2-0.2c0.1,0,0.2,0.1,0.2,0.2c0,0.1-0.1,0.2-0.2,0.2C29.2,13.8,29.1,13.7,29.1,13.6
		z M29.3,13.8c0.1,0,0.2-0.1,0.2-0.2c0-0.1-0.1-0.2-0.2-0.2c-0.1,0-0.2,0.1-0.2,0.2C29.1,13.7,29.2,13.8,29.3,13.8z M29.3,13.7
		L29.3,13.7l0-0.2h0.1c0,0,0,0,0.1,0c0,0,0,0,0,0.1C29.4,13.6,29.4,13.6,29.3,13.7l0.1,0L29.3,13.7L29.3,13.7L29.3,13.7L29.3,13.7
		l0-0.1h0c0,0,0,0,0,0c0,0,0,0,0,0c0,0,0,0,0,0c0,0,0,0,0,0h0L29.3,13.7L29.3,13.7L29.3,13.7z M13.5,13.8h-0.9l0.5-2.9l-1.2,2.9
		h-0.8L10.9,11l-0.5,2.9H9.5l0.7-3.7h1.4l0.1,2.3l1-2.3h1.5L13.5,13.8L13.5,13.8z M23.7,13.8c-0.2,0.1-0.4,0.1-0.7,0.1
		c-0.5,0-0.7-0.2-0.7-0.7c0-0.1,0-0.2,0-0.3l0.1-0.3l0-0.2l0.4-2.3h0.9l-0.1,0.7h0.5L24,11.5h-0.5l-0.2,1.3c0,0,0,0.1,0,0.1
		c0,0.2,0.1,0.2,0.3,0.2c0.1,0,0.2,0,0.2,0L23.7,13.8L23.7,13.8z M26.4,10.8c-0.1,0-0.1,0-0.1,0c0,0-0.1,0-0.1,0c0,0-0.1,0-0.1,0
		c-0.3,0-0.5,0.1-0.8,0.5l0.1-0.5h-0.8l-0.6,3h0.9c0.3-1.9,0.5-2.2,0.9-2.2c0,0,0.1,0,0.1,0l0.1,0L26.4,10.8L26.4,10.8z M20.1,11.8
		c0,0.4,0.2,0.6,0.7,0.8c0.4,0.2,0.4,0.2,0.4,0.3c0,0.2-0.2,0.3-0.5,0.3c-0.3,0-0.5,0-0.8-0.1l-0.1,0.7l0,0l0.2,0c0.1,0,0.1,0,0.2,0
		c0.2,0,0.4,0,0.5,0c1,0,1.4-0.3,1.4-1c0-0.4-0.2-0.7-0.7-0.8c-0.4-0.2-0.4-0.2-0.4-0.3c0-0.2,0.2-0.2,0.5-0.2c0.2,0,0.4,0,0.7,0
		l0.1-0.7c-0.2,0-0.6-0.1-0.8-0.1C20.5,10.7,20.1,11.2,20.1,11.8z M16.5,13.8h-0.8l0-0.3c-0.2,0.2-0.5,0.4-1,0.4
		c-0.5,0-0.8-0.3-0.8-0.8c0-0.7,0.6-1.2,1.6-1.2c0.1,0,0.2,0,0.4,0c0-0.1,0-0.1,0-0.2c0-0.2-0.2-0.3-0.6-0.3c-0.3,0-0.6,0-0.8,0.1
		l-0.1,0l-0.1,0l0.1-0.7c0.5-0.1,0.8-0.2,1.1-0.2c0.8,0,1.2,0.3,1.2,0.9c0,0.2,0,0.3-0.1,0.6l-0.2,1.1l0,0.2l0,0.2L16.5,13.8
		L16.5,13.8L16.5,13.8z M15.8,12.5c-0.1,0-0.1,0-0.2,0c-0.5,0-0.8,0.2-0.8,0.5c0,0.2,0.1,0.3,0.3,0.3C15.5,13.2,15.8,12.9,15.8,12.5
		L15.8,12.5z M19.5,13.8c-0.3,0.1-0.6,0.1-0.9,0.1c-1,0-1.6-0.5-1.6-1.4c0-1,0.7-1.8,1.6-1.8c0.8,0,1.2,0.4,1.2,1.1
		c0,0.2,0,0.4-0.1,0.8h-1.8c0,0,0,0.1,0,0.1c0,0.4,0.3,0.5,0.8,0.5c0.3,0,0.6-0.1,0.9-0.2L19.5,13.8L19.5,13.8z M19,12
		c0-0.1,0-0.1,0-0.2c0-0.2-0.2-0.4-0.4-0.4c-0.3,0-0.5,0.2-0.6,0.5L19,12z M29.2,12.5c-0.1,1-0.8,1.5-1.8,1.5c-1,0-1.4-0.6-1.4-1.4
		c0-1.1,0.7-1.8,1.8-1.8c0.9,0,1.4,0.6,1.4,1.4C29.2,12.3,29.2,12.3,29.2,12.5L29.2,12.5z M28.3,12.1c0-0.3-0.1-0.6-0.5-0.6
		c-0.5,0-0.8,0.6-0.8,1c0,0.4,0.2,0.7,0.5,0.7c0.2,0,0.6-0.3,0.7-0.7C28.3,12.3,28.3,12.2,28.3,12.1L28.3,12.1z"/>
</g>
</svg>
