<?xml version="1.0" encoding="utf-8"?>
<!-- Generator: Adobe Illustrator 21.1.0, SVG Export Plug-In . SVG Version: 6.00 Build 0)  -->
<svg version="1.1" id="Layer_1" xmlns="http://www.w3.org/2000/svg" xmlns:xlink="http://www.w3.org/1999/xlink" x="0px" y="0px"
	 viewBox="0 0 38 24" style="enable-background:new 0 0 38 24;" xml:space="preserve">
<style type="text/css">
	.st0{opacity:7.000000e-02;enable-background:new    ;}
	.st1{fill:#FFFFFF;}
	.st2{display:none;fill:#0F2496;}
	.st3{display:none;}
	.st4{display:inline;}
	.st5{clip-path:url(#SVGID_2_);}
	.st6{clip-path:url(#SVGID_4_);fill:#FFFFFF;}
	.st7{clip-path:url(#SVGID_4_);fill:#E21E27;}
	.st8{fill:#F79F1A;}
	.st9{fill:#EA001B;}
	.st10{fill:#FF5F01;}
</style>
<path class="st0" d="M35,0H3C1.3,0,0,1.3,0,3v18c0,1.7,1.4,3,3,3h32c1.7,0,3-1.3,3-3V3C38,1.3,36.6,0,35,0z"/>
<path class="st1" d="M35,1c1.1,0,2,0.9,2,2v18c0,1.1-0.9,2-2,2H3c-1.1,0-2-0.9-2-2V3c0-1.1,0.9-2,2-2H35"/>
<path class="st2" d="M15.8,7.9L14.1,16h2.1L18,7.9H15.8z M29.5,7.9h-1.8c-0.4,0-0.8,0.2-0.9,0.6L23.6,16h2.2l0.4-1.2H29l0.3,1.2h2
	L29.5,7.9L29.5,7.9z M26.9,13.2l1.1-3.1l0.6,3.1H26.9L26.9,13.2z M12.7,7.9l-2.2,5.5L9.6,8.7c-0.1-0.5-0.5-0.8-1-0.8H5l0,0.2
	c0.7,0.2,1.6,0.4,2.1,0.7C7.4,9,7.5,9.1,7.6,9.5l1.7,6.5h2.2l3.4-8.1L12.7,7.9C12.7,7.9,12.7,7.9,12.7,7.9z M20.8,10.2
	c0-0.3,0.3-0.6,0.9-0.7c0.3,0,1.1-0.1,2.1,0.4l0.4-1.7c-0.5-0.2-1.2-0.4-2-0.4c-2.1,0-3.6,1.1-3.6,2.7c0,1.2,1.1,1.8,1.8,2.2
	c0.8,0.4,1.1,0.7,1.1,1c0,0.5-0.7,0.8-1.3,0.8c-1.1,0-1.7-0.3-2.2-0.5l-0.4,1.8c0.5,0.2,1.4,0.4,2.4,0.4c2.2,0,3.7-1.1,3.7-2.8
	C23.7,11.3,20.7,11.1,20.8,10.2L20.8,10.2z"/>
<g class="st3">
	<g class="st4">
		<defs>
			<rect id="SVGID_1_" x="4.5" y="2.4" width="29" height="19.2"/>
		</defs>
		<clipPath id="SVGID_2_">
			<use xlink:href="#SVGID_1_"  style="overflow:visible;"/>
		</clipPath>
		<g class="st5">
			<defs>
				<rect id="SVGID_3_" x="4.5" y="2.4" width="29" height="19.2"/>
			</defs>
			<clipPath id="SVGID_4_">
				<use xlink:href="#SVGID_3_"  style="overflow:visible;"/>
			</clipPath>
			<path class="st6" d="M13.2,3.4c-4.7,0-8.6,3.8-8.6,8.6c0,4.7,3.8,8.6,8.6,8.6h11.5c4.7,0,8.6-3.8,8.6-8.6c0-4.7-3.8-8.6-8.6-8.6
				H13.2z"/>
			<path class="st6" d="M24.8,20.7H13.2c-4.8,0-8.7-3.9-8.7-8.7c0-4.8,3.9-8.7,8.7-8.7h11.5c4.8,0,8.7,3.9,8.7,8.7
				C33.5,16.8,29.6,20.7,24.8,20.7 M13.2,3.4c-4.7,0-8.6,3.8-8.6,8.6c0,4.7,3.8,8.6,8.6,8.6h11.5c4.7,0,8.6-3.8,8.6-8.6
				c0-4.7-3.8-8.6-8.6-8.6H13.2z"/>
			<path class="st7" d="M26.8,11.5l3.8,4.6c0.8-1.1,1.3-2.5,1.3-4c0-1.6-0.5-3-1.4-4.2L26.8,11.5z"/>
			<path class="st7" d="M15.9,7.4c2.9,0,5,0.7,5.2,3.1l3-3.1h6c-1.3-1.5-3.2-2.5-5.4-2.5H13.2c-2.2,0-4.1,1-5.4,2.5H15.9z"/>
			<path class="st7" d="M11.2,10.4l-1,2.8h4.1c1.2,0,1.6-0.5,1.9-1.5c0.3-1-0.4-1.3-1.2-1.3H11.2z"/>
			<path class="st7" d="M24.2,16.4l-3.2-4c-0.6,2.7-2.5,4-6.1,4H7.7c1.3,1.6,3.3,2.7,5.6,2.7h11.5c2.2,0,4.3-1.1,5.6-2.7H24.2z"/>
		</g>
	</g>
</g>
<g id="g3125">
	<g id="g3115">
		<g id="g3110">
			<path id="path2997" class="st8" d="M30.9,12c0,4.1-3.3,7.4-7.4,7.4s-7.4-3.3-7.4-7.4s3.3-7.4,7.4-7.4S30.9,7.9,30.9,12z"/>
			<path id="path2995" class="st9" d="M21.8,12c0,4.1-3.3,7.4-7.4,7.4S7.1,16.1,7.1,12s3.3-7.4,7.4-7.4S21.8,7.9,21.8,12L21.8,12z"
				/>
			<path id="path2999" class="st10" d="M19,6.2c-1.7,1.4-2.8,3.5-2.8,5.8s1.1,4.5,2.8,5.8c1.7-1.4,2.8-3.5,2.8-5.8S20.7,7.5,19,6.2
				L19,6.2z"/>
		</g>
	</g>
</g>
</svg>
