<?xml version="1.0" encoding="UTF-8" standalone="no"?>
<svg
   xmlns:dc="http://purl.org/dc/elements/1.1/"
   xmlns:cc="http://creativecommons.org/ns#"
   xmlns:rdf="http://www.w3.org/1999/02/22-rdf-syntax-ns#"
   xmlns:svg="http://www.w3.org/2000/svg"
   xmlns="http://www.w3.org/2000/svg"
   xmlns:xlink="http://www.w3.org/1999/xlink"
   xmlns:sodipodi="http://sodipodi.sourceforge.net/DTD/sodipodi-0.dtd"
   xmlns:inkscape="http://www.inkscape.org/namespaces/inkscape"
   version="1.1"
   id="Layer_1"
   x="0px"
   y="0px"
   viewBox="0 0 38 24"
   style="enable-background:new 0 0 38 24;"
   xml:space="preserve"
   sodipodi:docname="mobilepay.svg"
   inkscape:version="1.0.1 (3bc2e813f5, 2020-09-07)"><metadata
   id="metadata75"><rdf:RDF><cc:Work
       rdf:about=""><dc:format>image/svg+xml</dc:format><dc:type
         rdf:resource="http://purl.org/dc/dcmitype/StillImage" /><dc:title></dc:title></cc:Work></rdf:RDF></metadata><defs
   id="defs73"><linearGradient
     id="a"
     x1="0.48743001"
     x2="0.52402997"
     y1="0.76002002"
     y2="-0.0058300002"><stop
       stop-color="#504678"
       offset="0%"
       id="stop2" /><stop
       stop-color="#504678"
       stop-opacity=".616"
       offset="30.2%"
       id="stop4" /><stop
       stop-color="#504678"
       stop-opacity=".283"
       offset="60.8%"
       id="stop6" /><stop
       stop-color="#504678"
       stop-opacity=".076"
       offset="85.2%"
       id="stop8" /><stop
       stop-color="#504678"
       stop-opacity="0"
       offset="100%"
       id="stop10" /></linearGradient><linearGradient
     id="b"
     x1="5.6612129"
     x2="21.759644"
     y1="25.535652"
     y2="16.290112"
     gradientTransform="scale(1.0895017,0.91785082)"
     gradientUnits="userSpaceOnUse"><stop
       stop-color="#504678"
       offset="0%"
       id="stop13" /><stop
       stop-color="#504678"
       stop-opacity=".872"
       offset="17.9%"
       id="stop15" /><stop
       stop-color="#504678"
       stop-opacity=".536"
       offset="52.6%"
       id="stop17" /><stop
       stop-color="#504678"
       stop-opacity="0"
       offset="100%"
       id="stop19" /></linearGradient><linearGradient
     id="c"
     x1="18.200151"
     x2="17.292404"
     y1="13.974121"
     y2="7.8576007"
     gradientTransform="scale(1.0895017,0.91785082)"
     gradientUnits="userSpaceOnUse"><stop
       stop-color="#504678"
       offset="0%"
       id="stop22" /><stop
       stop-color="#504678"
       stop-opacity=".332"
       offset="64.3%"
       id="stop24" /><stop
       stop-color="#504678"
       stop-opacity="0"
       offset="100%"
       id="stop26" /></linearGradient><linearGradient
     inkscape:collect="always"
     xlink:href="#a"
     id="linearGradient878"
     x1="93.05706"
     y1="8.709075"
     x2="93.352875"
     y2="2.5191834"
     gradientTransform="matrix(0.3881282,0,0,2.5764683,-9.2670905,12.54081)"
     gradientUnits="userSpaceOnUse" /><linearGradient
     inkscape:collect="always"
     xlink:href="#a"
     id="linearGradient880"
     x1="123.58177"
     y1="16.342903"
     x2="123.8965"
     y2="9.757246"
     gradientTransform="matrix(0.36480354,0,0,2.7412015,-72.010924,-91.663863)"
     gradientUnits="userSpaceOnUse" /></defs><sodipodi:namedview
   pagecolor="#ffffff"
   bordercolor="#666666"
   borderopacity="1"
   objecttolerance="10"
   gridtolerance="10"
   guidetolerance="10"
   inkscape:pageopacity="0"
   inkscape:pageshadow="2"
   inkscape:window-width="1920"
   inkscape:window-height="1175"
   id="namedview71"
   showgrid="false"
   inkscape:zoom="5.2893448"
   inkscape:cx="-25.101495"
   inkscape:cy="-16.552932"
   inkscape:window-x="1920"
   inkscape:window-y="0"
   inkscape:window-maximized="1"
   inkscape:current-layer="Layer_1" />
<style
   type="text/css"
   id="style2">
	.st0{opacity:7.000000e-02;enable-background:new    ;}
	.st1{fill:#FFFFFF;}
	.st2{display:none;fill:#0F2496;}
	.st3{display:none;}
	.st4{display:inline;}
	.st5{clip-path:url(#SVGID_2_);}
	.st6{clip-path:url(#SVGID_4_);fill:#FFFFFF;}
	.st7{clip-path:url(#SVGID_4_);fill:#E21E27;}
	.st8{fill:#F79F1A;}
	.st9{fill:#EA001B;}
	.st10{fill:#FF5F01;}
	.st11{display:none;fill:#3086C8;}
	.st12{display:none;fill:#0079BE;}
	.st13{display:none;fill:#FFFFFF;}
	.st14{fill:none;}
	.st15{fill:#003C5C;}
</style>
<path
   class="st0"
   d="M35,0H3C1.3,0,0,1.3,0,3v18c0,1.7,1.4,3,3,3h32c1.7,0,3-1.3,3-3V3C38,1.3,36.6,0,35,0z"
   id="path4" />
<path
   class="st1"
   d="M35,1c1.1,0,2,0.9,2,2v18c0,1.1-0.9,2-2,2H3c-1.1,0-2-0.9-2-2V3c0-1.1,0.9-2,2-2H35"
   id="path6" />
<path
   class="st2"
   d="M15.8,7.9L14.1,16h2.1L18,7.9H15.8z M29.5,7.9h-1.8c-0.4,0-0.8,0.2-0.9,0.6L23.6,16h2.2l0.4-1.2H29l0.3,1.2h2  L29.5,7.9L29.5,7.9z M26.9,13.2l1.1-3.1l0.6,3.1H26.9L26.9,13.2z M12.7,7.9l-2.2,5.5L9.6,8.7c-0.1-0.5-0.5-0.8-1-0.8H5l0,0.2  c0.7,0.2,1.6,0.4,2.1,0.7C7.4,9,7.5,9.1,7.6,9.5l1.7,6.5h2.2l3.4-8.1L12.7,7.9C12.7,7.9,12.7,7.9,12.7,7.9z M20.8,10.2  c0-0.3,0.3-0.6,0.9-0.7c0.3,0,1.1-0.1,2.1,0.4l0.4-1.7c-0.5-0.2-1.2-0.4-2-0.4c-2.1,0-3.6,1.1-3.6,2.7c0,1.2,1.1,1.8,1.8,2.2  c0.8,0.4,1.1,0.7,1.1,1c0,0.5-0.7,0.8-1.3,0.8c-1.1,0-1.7-0.3-2.2-0.5l-0.4,1.8c0.5,0.2,1.4,0.4,2.4,0.4c2.2,0,3.7-1.1,3.7-2.8  C23.7,11.3,20.7,11.1,20.8,10.2L20.8,10.2z"
   id="path8" />
<g
   class="st3"
   id="g38">
	<g
   class="st4"
   id="g36">
		<defs
   id="defs11">
			<rect
   id="SVGID_1_"
   x="4.5"
   y="2.4"
   width="29"
   height="19.2" />
		</defs>
		<clipPath
   id="SVGID_2_">
			<use
   xlink:href="#SVGID_1_"
   style="overflow:visible;"
   id="use13" />
		</clipPath>
		<g
   class="st5"
   clip-path="url(#SVGID_2_)"
   id="g34">
			<defs
   id="defs17">
				<rect
   id="SVGID_3_"
   x="4.5"
   y="2.4"
   width="29"
   height="19.2" />
			</defs>
			<clipPath
   id="SVGID_4_">
				<use
   xlink:href="#SVGID_3_"
   style="overflow:visible;"
   id="use19" />
			</clipPath>
			<path
   class="st6"
   d="M13.2,3.4c-4.7,0-8.6,3.8-8.6,8.6c0,4.7,3.8,8.6,8.6,8.6h11.5c4.7,0,8.6-3.8,8.6-8.6c0-4.7-3.8-8.6-8.6-8.6     H13.2z"
   clip-path="url(#SVGID_4_)"
   id="path22" />
			<path
   class="st6"
   d="M24.8,20.7H13.2c-4.8,0-8.7-3.9-8.7-8.7c0-4.8,3.9-8.7,8.7-8.7h11.5c4.8,0,8.7,3.9,8.7,8.7     C33.5,16.8,29.6,20.7,24.8,20.7 M13.2,3.4c-4.7,0-8.6,3.8-8.6,8.6c0,4.7,3.8,8.6,8.6,8.6h11.5c4.7,0,8.6-3.8,8.6-8.6     c0-4.7-3.8-8.6-8.6-8.6H13.2z"
   clip-path="url(#SVGID_4_)"
   id="path24" />
			<path
   class="st7"
   d="M26.8,11.5l3.8,4.6c0.8-1.1,1.3-2.5,1.3-4c0-1.6-0.5-3-1.4-4.2L26.8,11.5z"
   clip-path="url(#SVGID_4_)"
   id="path26" />
			<path
   class="st7"
   d="M15.9,7.4c2.9,0,5,0.7,5.2,3.1l3-3.1h6c-1.3-1.5-3.2-2.5-5.4-2.5H13.2c-2.2,0-4.1,1-5.4,2.5H15.9z"
   clip-path="url(#SVGID_4_)"
   id="path28" />
			<path
   class="st7"
   d="M11.2,10.4l-1,2.8h4.1c1.2,0,1.6-0.5,1.9-1.5c0.3-1-0.4-1.3-1.2-1.3H11.2z"
   clip-path="url(#SVGID_4_)"
   id="path30" />
			<path
   class="st7"
   d="M24.2,16.4l-3.2-4c-0.6,2.7-2.5,4-6.1,4H7.7c1.3,1.6,3.3,2.7,5.6,2.7h11.5c2.2,0,4.3-1.1,5.6-2.7H24.2z"
   clip-path="url(#SVGID_4_)"
   id="path32" />
		</g>
	</g>
</g>
<g
   id="g3125"
   class="st3">
	<g
   id="g3115"
   class="st4">
		<g
   id="g3110">
			<path
   id="path2997"
   class="st8"
   d="M30.9,12c0,4.1-3.3,7.4-7.4,7.4s-7.4-3.3-7.4-7.4s3.3-7.4,7.4-7.4S30.9,7.9,30.9,12z" />
			<path
   id="path2995"
   class="st9"
   d="M21.8,12c0,4.1-3.3,7.4-7.4,7.4S7.1,16.1,7.1,12s3.3-7.4,7.4-7.4S21.8,7.9,21.8,12L21.8,12z" />
			<path
   id="path2999"
   class="st10"
   d="M19,6.2c-1.7,1.4-2.8,3.5-2.8,5.8s1.1,4.5,2.8,5.8c1.7-1.4,2.8-3.5,2.8-5.8S20.7,7.5,19,6.2     L19,6.2z" />
		</g>
	</g>
</g>
<path
   class="st11"
   d="M2.3,0C1,0,0,0.9,0,2V22c0,1.1,1,2,2.3,2h33.2c1.4,0,2.5-0.9,2.5-2V2c0-1.1-1.1-2-2.5-2H2.3z M17.4,13.3  L15.9,10h-2.1v4.7L11.7,10h-1.7L7.9,15h1.3l0.5-1.2h2.5l0.5,1.2h2.5v-3.7l1.7,3.7H18l1.6-3.6V15h1.5v-5H19L17.4,13.3z M10.1,12.7  l0.8-1.7l0.8,1.7H10.1z M27.4,11.6L26,10h-4V15h3.8l1.5-1.6l1.5,1.6h1.1v-0.5l-1.8-2l1.8-1.9V10h-1.1L27.4,11.6z M25.1,13.9h-1.9v-1  H25v-0.9h-1.8v-1l2.1,0l1.2,1.4C26.5,12.5,25.1,13.9,25.1,13.9z M31,10.7l-1.7,1.8l1.7,1.8V16h-1.1v0h-1.7l-0.9-1.1l-1,1.1h-4.8v0  H19v0h0v-0.5L18.7,16h-2.3l-0.3-0.6V16h-4.2l-0.5-1.2h-0.8L10,16H7.9v0H7v-1.9l0.9-1.6v0L9.4,9h3.1l0.4,1V9h3.8l0.8,1.7L18.4,9h3v0  h0.4v0h-0.4v0h5.2l0.9,1l1-1h1.5v0H31V10.7z"
   id="path46" />
<path
   class="st12"
   d="M20.8,20.3c4.6,0,8.7-3.7,8.7-8.3c0-5-4.2-8.4-8.7-8.4h-3.9c-4.6,0-8.4,3.4-8.4,8.4c0,4.5,3.8,8.3,8.4,8.3  H20.8z"
   id="path48" />
<path
   class="st13"
   d="M16.9,4.4c-4.2,0-7.6,3.4-7.6,7.6c0,4.2,3.4,7.6,7.6,7.6c4.2,0,7.6-3.4,7.6-7.6C24.5,7.8,21.1,4.4,16.9,4.4z   M12.1,12L12.1,12c0-2.1,1.3-3.8,3.1-4.5v9C13.4,15.8,12.1,14,12.1,12z M18.6,16.5L18.6,16.5v-9c1.8,0.7,3.1,2.5,3.1,4.5  C21.7,14,20.4,15.8,18.6,16.5z"
   id="path50" />
<path
   class="st13"
   d="M16.9,4.4c-4.2,0-7.6,3.4-7.6,7.6c0,4.2,3.4,7.6,7.6,7.6c4.2,0,7.6-3.4,7.6-7.6C24.5,7.8,21.1,4.4,16.9,4.4z   M12.1,12L12.1,12c0-2.1,1.3-3.8,3.1-4.5v9C13.4,15.8,12.1,14,12.1,12z M18.6,16.5L18.6,16.5v-9c1.8,0.7,3.1,2.5,3.1,4.5  C21.7,14,20.4,15.8,18.6,16.5z"
   id="path52" />
<g
   id="g958"
   transform="matrix(0.24628652,0,0,0.24628652,11.013042,3.4714678)"><path
     fill="#5a78ff"
     d="m 25.965,68.979 c -2.359518,1.38e-4 -4.486976,-1.420535 -5.391,-3.6 L 0.447,16.791 C -0.78437239,13.818051 0.6272086,10.409752 3.6,9.178 L 24.681,0.447 c 1.427502,-0.59156928 3.031562,-0.5917023 4.459162,-3.6977e-4 C 30.567762,1.0379628 31.701908,2.1723001 32.293,3.6 L 52.42,52.19 c 1.229373,2.97212 -0.181865,6.378248 -3.153,7.61 l -21.081,8.735 c -0.703961,0.292519 -1.458682,0.443396 -2.221,0.444 z M 26.911,3.138 c -0.353283,5.803e-4 -0.702974,0.070926 -1.029,0.207 L 4.8,12.076 C 4.1410076,12.348965 3.6174687,12.872575 3.3445923,13.531604 3.0717159,14.190633 3.0718626,14.931079 3.345,15.59 l 20.127,48.591 c 0.569725,1.371003 2.141573,2.022286 3.514,1.456 L 48.067,56.9 v 0 c 0.658992,-0.272965 1.182531,-0.796575 1.455408,-1.455604 C 49.795284,54.785367 49.795137,54.044921 49.522,53.386 L 29.395,4.8 C 28.978381,3.7953898 27.99857,3.1398156 26.911,3.138 Z"
     id="path31" /><rect
     width="3.1370001"
     height="20.823999"
     x="25.321911"
     y="19.152809"
     fill="url(#a)"
     opacity="0.7"
     style="mix-blend-mode:multiply;fill:url(#linearGradient878)"
     transform="rotate(-22.5)"
     id="rect33" /><rect
     width="3.1370001"
     height="23.572001"
     x="-28.456923"
     y="-64.779861"
     fill="url(#a)"
     opacity="0.7"
     style="mix-blend-mode:multiply;fill:url(#linearGradient880)"
     transform="rotate(157.5)"
     id="rect35" /><path
     fill="#5a78ff"
     d="m 44.523,35.724 c -6.029,2.5 -11.063,5.946 -14.359,10.1 L 21.666,25.3 c 3.876306,-4.503565 8.810279,-7.974079 14.359,-10.1 6.029,-2.5 12.12,-3.71 17.295,-3.005 l 8.5,20.523 c -5.925655,-0.446271 -11.869351,0.586668 -17.297,3.006 z"
     id="path37" /><g
     opacity="0.4"
     style="mix-blend-mode:multiply;fill:none"
     transform="translate(21,11)"
     id="g43"><path
       fill="url(#b)"
       d="m 23.523,24.724 c -6.029,2.5 -11.063,5.946 -14.359,10.1 L 0.666,14.3 C 4.5423064,9.7964352 9.4762786,6.3259206 15.025,4.2 21.054,1.7 27.145,0.49 32.32,1.195 l 8.5,20.523 c -5.925655,-0.446271 -11.869351,0.586668 -17.297,3.006 z"
       opacity="0.9"
       id="path39"
       style="fill:url(#b)" /><path
       fill="url(#c)"
       d="m 23.523,24.724 c -6.029,2.5 -11.063,5.946 -14.359,10.1 L 0.666,14.3 C 4.5423064,9.7964352 9.4762786,6.3259206 15.025,4.2 21.054,1.7 27.145,0.49 32.32,1.195 l 8.5,20.523 c -5.925655,-0.446271 -11.869351,0.586668 -17.297,3.006 z"
       opacity="0.7"
       id="path41"
       style="fill:url(#c)" /></g><path
     fill="#5a78ff"
     d="m 47.292,41.981 c -6.526,0 -12.5,1.261 -17.13,3.835 V 25.064 c 5.304463,-2.676751 11.190566,-3.994509 17.13,-3.835 6.526,0 12.617,1.21 17.129,3.84 V 45.821 C 59.11751,43.142047 53.231586,41.822534 47.292,41.981 Z"
     id="path45"
     sodipodi:nodetypes="ccccccc" /></g>
</svg>
