<?xml version="1.0" encoding="UTF-8" standalone="no"?>
<!-- Generator: Adobe Illustrator 21.1.0, SVG Export Plug-In . SVG Version: 6.00 Build 0)  -->

<svg
   xmlns:dc="http://purl.org/dc/elements/1.1/"
   xmlns:cc="http://creativecommons.org/ns#"
   xmlns:rdf="http://www.w3.org/1999/02/22-rdf-syntax-ns#"
   xmlns:svg="http://www.w3.org/2000/svg"
   xmlns="http://www.w3.org/2000/svg"
   xmlns:sodipodi="http://sodipodi.sourceforge.net/DTD/sodipodi-0.dtd"
   xmlns:inkscape="http://www.inkscape.org/namespaces/inkscape"
   version="1.1"
   id="Layer_1"
   x="0px"
   y="0px"
   viewBox="0 0 38 24"
   style="enable-background:new 0 0 38 24;"
   xml:space="preserve"
   sodipodi:docname="unionpay.svg"
   inkscape:version="0.92.4 5da689c313, 2019-01-14"><metadata
   id="metadata80"><rdf:RDF><cc:Work
       rdf:about=""><dc:format>image/svg+xml</dc:format><dc:type
         rdf:resource="http://purl.org/dc/dcmitype/StillImage" /><dc:title></dc:title></cc:Work></rdf:RDF></metadata><defs
   id="defs78" /><sodipodi:namedview
   pagecolor="#ffffff"
   bordercolor="#666666"
   borderopacity="1"
   objecttolerance="10"
   gridtolerance="10"
   guidetolerance="10"
   inkscape:pageopacity="0"
   inkscape:pageshadow="2"
   inkscape:window-width="1920"
   inkscape:window-height="1176"
   id="namedview76"
   showgrid="false"
   inkscape:zoom="5.1730443"
   inkscape:cx="-1.6919898"
   inkscape:cy="36.849891"
   inkscape:window-x="0"
   inkscape:window-y="0"
   inkscape:window-maximized="1"
   inkscape:current-layer="Layer_1" />
<style
   type="text/css"
   id="style2">
	.st0{opacity:7.000000e-02;enable-background:new    ;}
	.st1{fill:#FFFFFF;}
	.st2{display:none;fill:#0F2496;}
	.st3{fill:url(#SVGID_1_);}
	.st4{fill:url(#SVGID_2_);}
	.st5{fill:url(#SVGID_3_);}
	.st6{fill:url(#SVGID_4_);}
	.st7{fill:url(#SVGID_5_);}
</style>
<path
   class="st0"
   d="M35,0H3C1.3,0,0,1.3,0,3v18c0,1.7,1.4,3,3,3h32c1.7,0,3-1.3,3-3V3C38,1.3,36.6,0,35,0z"
   id="path4" />
<path
   class="st1"
   d="M35,1c1.1,0,2,0.9,2,2v18c0,1.1-0.9,2-2,2H3c-1.1,0-2-0.9-2-2V3c0-1.1,0.9-2,2-2H35"
   id="path6" />
<path
   class="st2"
   d="M15.8,7.9L14.1,16h2.1L18,7.9H15.8z M29.5,7.9h-1.8c-0.4,0-0.8,0.2-0.9,0.6L23.6,16h2.2l0.4-1.2H29l0.3,1.2h2  L29.5,7.9L29.5,7.9z M26.9,13.2l1.1-3.1l0.6,3.1L26.9,13.2L26.9,13.2z M12.7,7.9l-2.2,5.5L9.6,8.7c-0.1-0.5-0.5-0.8-1-0.8H5v0.2  c0.7,0.2,1.6,0.4,2.1,0.7C7.4,9,7.5,9.1,7.6,9.5L9.3,16h2.2l3.4-8.1L12.7,7.9L12.7,7.9z M20.8,10.2c0-0.3,0.3-0.6,0.9-0.7  c0.3,0,1.1-0.1,2.1,0.4l0.4-1.7c-0.5-0.2-1.2-0.4-2-0.4c-2.1,0-3.6,1.1-3.6,2.7c0,1.2,1.1,1.8,1.8,2.2c0.8,0.4,1.1,0.7,1.1,1  c0,0.5-0.7,0.8-1.3,0.8c-1.1,0-1.7-0.3-2.2-0.5l-0.4,1.8c0.5,0.2,1.4,0.4,2.4,0.4c2.2,0,3.7-1.1,3.7-2.8  C23.7,11.3,20.7,11.1,20.8,10.2L20.8,10.2z"
   id="path8" />

<g
   transform="matrix(0.09354164,0,0,0.09354164,7.0487501,4.5241377)"
   id="g26799"><path
     style="fill:#e21836"
     inkscape:connector-curvature="0"
     d="m 50.041631,6.675633e-4 h 63.778579 c 8.90292,0 14.44023,7.2566458367 12.36335,16.1890984367 L 96.490071,143.67542 c -2.095535,8.90136 -11.009332,16.16422 -19.918466,16.16422 H 12.799243 c -8.890479,0 -14.4402274,-7.26286 -12.36334679,-16.16422 L 30.141819,16.189766 C 32.218699,7.2573134 41.127833,6.675633e-4 50.041631,6.675633e-4"
     id="path26791" /><path
     style="fill:#00447c"
     inkscape:connector-curvature="0"
     d="m 108.51328,6.675633e-4 h 73.34374 c 8.90136,0 4.88751,7.2566458367 2.79353,16.1890984367 L 154.96172,143.67542 c -2.0831,8.90136 -1.43329,16.16422 -10.35331,16.16422 H 71.264678 c -8.920017,0 -14.440229,-7.26286 -12.344693,-16.16422 L 88.607253,16.189766 C 90.715224,7.2573134 99.605704,6.675633e-4 108.51328,6.675633e-4"
     id="path26793" /><path
     style="fill:#007b84"
     inkscape:connector-curvature="0"
     d="m 178.94783,6.675633e-4 h 63.77858 c 8.91535,0 14.45266,7.2566458367 12.35868,16.1890984367 L 225.39627,143.67542 c -2.09553,8.90136 -11.01555,16.16422 -19.92935,16.16422 h -63.74904 c -8.92002,0 -14.45267,-7.26286 -12.36335,-16.16422 L 159.04802,16.189766 C 161.1249,7.2573134 170.02781,6.675633e-4 178.94783,6.675633e-4"
     id="path26795" /><path
     style="fill:#fefefe"
     inkscape:connector-curvature="0"
     d="m 66.698338,40.856143 c -6.558652,0.06685 -8.495623,0 -9.114334,-0.146127 -0.237847,1.130158 -4.663655,21.546082 -4.676091,21.563182 -0.952941,4.130443 -1.64627,7.074763 -4.001416,8.97598 -1.336914,1.105285 -2.897683,1.638497 -4.707181,1.638497 -2.908566,0 -4.603027,-1.444179 -4.88751,-4.183298 l -0.05441,-0.940503 c 0,0 0.886094,-5.532649 0.886094,-5.56374 0,0 4.645,-18.604871 5.476685,-21.064171 0.04353,-0.13991 0.05596,-0.212974 0.06685,-0.27982 -9.04127,0.07928 -10.644013,0 -10.754386,-0.146127 -0.06063,0.200537 -0.284483,1.354014 -0.284483,1.354014 L 29.90522,63.033374 29.497927,64.81178 28.70977,70.628911 c 0,1.725552 0.338892,3.133976 1.013567,4.324762 2.160827,3.776006 8.324623,4.341862 11.811482,4.341862 4.492653,0 8.707042,-0.954494 11.55498,-2.697146 4.943473,-2.921002 6.23686,-7.486719 7.390338,-11.544099 l 0.534765,-2.081544 c 0,0 4.784909,-19.323074 5.597939,-21.836783 0.03109,-0.13991 0.04353,-0.212974 0.0855,-0.27982 z m 16.280351,15.588109 c -1.153478,0 -3.261449,0.279819 -5.154893,1.207886 -0.687112,0.352883 -1.336914,0.760176 -2.022471,1.165914 l 0.618711,-2.233891 -0.338892,-0.376201 c -4.015407,0.813031 -4.913937,0.921849 -8.623096,1.444178 l -0.310911,0.206755 c -0.430611,3.570805 -0.81303,6.255515 -2.409554,13.274315 -0.60783,2.586774 -1.238978,5.19842 -1.871681,7.778975 l 0.171001,0.328011 c 3.800879,-0.200537 4.954355,-0.200537 8.257777,-0.146129 l 0.267383,-0.290701 c 0.419729,-2.149944 0.474138,-2.653619 1.40376,-7.007917 0.436829,-2.064444 1.347796,-6.600625 1.797061,-8.215804 0.825467,-0.38242 1.640052,-0.758622 2.417327,-0.758622 1.851472,0 1.626062,1.615179 1.554552,2.258764 -0.07928,1.080413 -0.753957,4.609245 -1.445733,7.639066 l -0.461702,1.955625 c -0.321791,1.444179 -0.674675,2.847938 -0.996467,4.27968 l 0.139909,0.286038 c 3.74647,-0.200537 4.889065,-0.200537 8.088331,-0.146129 l 0.376202,-0.290701 c 0.578293,-3.357831 0.747739,-4.256361 1.773743,-9.145426 l 0.516111,-2.246326 c 1.002686,-4.396272 1.50636,-6.625498 0.74774,-8.441214 -0.802149,-2.034908 -2.726684,-2.526146 -4.494208,-2.526146 z m 18.187011,4.602871 c -1.991384,0.38242 -3.261453,0.637366 -4.523748,0.802148 -1.251415,0.200538 -2.471738,0.38242 -4.396272,0.649803 l -0.152346,0.138355 -0.13991,0.110373 c -0.200537,1.433297 -0.340447,2.672274 -0.606275,4.128889 -0.225409,1.50636 -0.572074,3.217921 -1.136376,5.677221 -0.436829,1.882562 -0.662239,2.538583 -0.910968,3.200822 -0.24251,0.662238 -0.509893,1.305823 -1.001131,3.157293 l 0.115037,0.171001 0.09638,0.15701 c 1.798616,-0.0855 2.975412,-0.146128 4.184853,-0.15701 1.207886,-0.04353 2.4593,0 4.396271,0.01088 l 0.169446,-0.138355 0.181882,-0.152346 c 0.279819,-1.669588 0.321792,-2.118854 0.492793,-2.933438 0.169446,-0.873659 0.461702,-2.083099 1.17835,-5.313457 0.338892,-1.517242 0.716649,-3.029821 1.067974,-4.578154 0.36533,-1.542115 0.74774,-3.060912 1.11151,-4.578153 l -0.0544,-0.183438 z m 0.0424,-6.20608 c -1.809502,-1.067977 -4.985451,-0.729085 -7.122959,0.746185 -2.13129,1.445733 -2.3738,3.497741 -0.57052,4.579708 1.778406,1.03844 4.966791,0.729085 7.085649,-0.758621 2.12662,-1.476824 2.39245,-3.510177 0.60783,-4.567272 z m 10.94326,24.73369 c 3.66097,0 7.41366,-1.008904 10.23827,-4.00297 2.17327,-2.428209 3.16973,-6.040986 3.51485,-7.528692 1.12394,-4.931037 0.24872,-7.233328 -0.85034,-8.635533 -1.66959,-2.137509 -4.62013,-2.823066 -7.68104,-2.823066 -1.84059,0 -6.22443,0.181883 -9.6491,3.339177 -2.4593,2.277418 -3.59568,5.367866 -4.28124,8.330841 -0.69177,3.018938 -1.4877,8.45365 3.51018,10.476121 1.54212,0.662239 3.76512,0.844122 5.19842,0.844122 z m -0.286,-11.094833 c 0.84412,-3.734032 1.84059,-6.868009 4.38384,-6.868009 1.99293,0 2.13751,2.331828 1.25141,6.078296 -0.15856,0.831685 -0.88609,3.923689 -1.87012,5.240394 -0.68712,0.971594 -1.50015,1.560769 -2.39868,1.560769 -0.26738,0 -1.85769,0 -1.88256,-2.361364 -0.0124,-1.165913 0.22541,-2.3567 0.51611,-3.650086 z m 23.1908,10.614632 0.28604,-0.290701 c 0.40573,-2.149945 0.47258,-2.655174 1.37111,-7.007918 0.44927,-2.064444 1.37889,-6.600625 1.81572,-8.215804 0.82702,-0.383974 1.62761,-0.760176 2.42976,-0.760176 1.83903,0 1.61518,1.61518 1.54212,2.258764 -0.0669,1.081967 -0.74152,4.609244 -1.44574,7.639065 l -0.43683,1.955626 c -0.33422,1.445732 -0.69799,2.847938 -1.01978,4.281234 l 0.13991,0.286038 c 3.7589,-0.200538 4.85797,-0.200538 8.07589,-0.146128 l 0.38864,-0.290701 c 0.5643,-3.359386 0.71665,-4.257917 1.77374,-9.145426 l 0.50368,-2.247881 c 1.00735,-4.396272 1.51724,-6.623944 0.77106,-8.43966 -0.82547,-2.034907 -2.76244,-2.526146 -4.50509,-2.526146 -1.15504,0 -3.27389,0.278265 -5.15645,1.207887 -0.67312,0.352883 -1.3478,0.758621 -2.01004,1.165914 l 0.57674,-2.233891 -0.30935,-0.377756 c -4.01385,0.814585 -4.93104,0.923404 -8.63554,1.445733 l -0.28448,0.206755 c -0.44926,3.570804 -0.81458,6.25396 -2.41111,13.274314 -0.60783,2.586774 -1.23897,5.19842 -1.87012,7.778975 l 0.16944,0.328011 c 3.8071,-0.200538 4.94348,-0.200538 8.24068,-0.146128 z m 27.61738,0.14535 c 0.23629,-1.153477 1.64005,-7.990394 1.65249,-7.990394 0,0 1.19545,-5.016537 1.26851,-5.19842 0,0 0.37621,-0.522329 0.75241,-0.729084 h 0.55342 c 5.22174,0 11.11815,0 15.73983,-3.399804 3.14486,-2.331827 5.2948,-5.775159 6.25396,-9.96001 0.24873,-1.026004 0.43217,-2.246327 0.43217,-3.46665 0,-1.602743 -0.3218,-3.188385 -1.25142,-4.427363 -2.3567,-3.297203 -7.04989,-3.357831 -12.4675,-3.382703 -0.0171,0 -2.67072,0.02487 -2.67072,0.02487 -6.93485,0.0855 -9.71595,0.06063 -10.85854,-0.07928 -0.0964,0.50523 -0.27827,1.40376 -0.27827,1.40376 0,0 -2.48417,11.513008 -2.48417,11.531662 0,0 -5.9446,24.477966 -6.22442,25.631443 6.05497,-0.07306 8.53759,-0.07306 9.58225,0.04197 z m 4.60303,-20.451678 c 0,0 2.64118,-11.489689 2.62875,-11.446161 l 0.0855,-0.589175 0.0373,-0.449266 1.05554,0.108819 c 0,0 5.44715,0.46792 5.57463,0.480356 2.14994,0.831685 3.03603,2.975412 2.41732,5.773604 -0.5643,2.557237 -2.223,4.707182 -4.35429,5.745622 -1.75509,0.879876 -3.90504,0.95294 -6.12027,0.95294 h -1.4333 z m 16.44467,9.904514 c -0.698,2.975411 -1.50015,8.410123 3.47286,10.347094 1.58564,0.674675 3.0065,0.875212 4.45068,0.802148 1.52502,-0.08239 2.93811,-0.84723 4.24704,-1.947852 -0.11815,0.452374 -0.23629,0.904748 -0.35444,1.358678 l 0.22541,0.2907 c 3.57702,-0.150791 4.68697,-0.150791 8.56247,-0.121255 l 0.35133,-0.267383 c 0.56585,-3.32674 1.09907,-6.557097 2.56967,-12.92143 0.71665,-3.048476 1.43174,-6.067414 2.16705,-9.103454 l -0.11504,-0.334228 c -4.00142,0.741521 -5.07095,0.900085 -8.92002,1.445733 l -0.29225,0.237846 c -0.0389,0.309356 -0.0793,0.606275 -0.11659,0.903194 -0.59851,-0.96693 -1.46595,-1.792397 -2.80441,-2.306954 -1.71157,-0.673121 -5.73164,0.194319 -9.1874,3.340731 -2.42821,2.246327 -3.59413,5.324338 -4.25636,8.276432 z m 8.4039,0.181882 c 0.85656,-3.667187 1.84059,-6.770071 4.39005,-6.770071 1.61207,0 2.46086,1.487706 2.2883,4.024733 -0.1368,0.632703 -0.28448,1.299605 -0.46015,2.053563 -0.25494,1.08974 -0.53165,2.170154 -0.80059,3.252121 -0.2736,0.739967 -0.59228,1.43796 -0.94206,1.902771 -0.65602,0.929622 -2.21679,1.50636 -3.11532,1.50636 -0.25494,0 -1.82815,0 -1.88256,-2.31939 -0.0124,-1.155032 0.22541,-2.344263 0.52233,-3.650087 z m 43.88576,-12.108556 -0.30935,-0.352883 c -3.95945,0.802148 -4.67609,0.929621 -8.31374,1.42086 l -0.26739,0.267383 c -0.0124,0.04353 -0.0233,0.110373 -0.042,0.171 l -0.0124,-0.06063 c -2.70802,6.247742 -2.62874,4.899946 -4.8331,9.818546 -0.0124,-0.223855 -0.0124,-0.363765 -0.0249,-0.601611 l -0.55187,-10.662668 -0.34666,-0.352883 c -4.14754,0.802148 -4.24548,0.929621 -8.07589,1.42086 l -0.29848,0.267383 c -0.042,0.127473 -0.042,0.267382 -0.0668,0.419728 l 0.0249,0.05441 c 0.4788,2.446864 0.36376,1.901217 0.84412,5.762722 0.22386,1.894998 0.52233,3.800878 0.74618,5.672558 0.37776,3.132421 0.58918,4.674536 1.05088,9.454781 -2.58677,4.268799 -3.19927,5.883978 -5.68966,9.630447 l 0.0171,0.03731 -1.75353,2.77332 c -0.20054,0.292256 -0.38242,0.492793 -0.63737,0.578293 -0.27982,0.138356 -0.64358,0.163228 -1.14881,0.163228 h -0.97159 l -1.44418,4.803564 4.95435,0.0855 c 2.90857,-0.01244 4.73672,-1.372668 5.72075,-3.200821 l 3.11532,-5.338329 h -0.0497 l 0.32801,-0.376202 c 2.09553,-4.511308 18.0359,-31.855867 18.0359,-31.855867 z m -52.28982,63.087576 h -2.10175 l 7.77897,-25.729375 h 2.58056 l 0.81924,-2.650509 0.0793,2.947429 c -0.0964,1.821934 1.33691,3.437113 5.10203,3.169731 h 4.3543 l 1.49859,-4.954356 h -1.6385 c -0.94205,0 -1.37888,-0.237847 -1.32447,-0.747739 l -0.0793,-2.99873 h -8.06345 v 0.01554 c -2.60699,0.05441 -10.39218,0.250284 -11.9685,0.670012 -1.90743,0.491239 -3.91747,1.936971 -3.91747,1.936971 l 0.78972,-2.653619 h -7.54269 l -1.57165,5.265265 -7.88313,26.12269 h -1.52968 l -1.50014,4.9186 h 15.02319 l -0.50368,1.64005 h 7.40277 l 0.49124,-1.64005 h 2.07688 z m -6.1638,-20.501418 C 176.3494,99.68643 174.10152,100.7 174.10152,100.7 l 1.99915,-6.575755 h 5.99279 l -1.44573,4.791128 c 0,0 -1.85147,0.108818 -3.09045,0.436829 z m 0.11504,9.394158 c 0,0 -1.88256,0.23629 -3.12154,0.51611 -1.22032,0.36998 -3.50862,1.53589 -3.50862,1.53589 l 2.06444,-6.84313 h 6.02389 z m -3.35783,11.16789 h -6.01145 l 1.74265,-5.77516 h 5.9928 z m 14.47691,-15.95902 h 8.66507 l -1.24519,4.03251 h -8.78011 l -1.31826,4.4087 h 7.68259 l -5.81713,8.19093 c -0.40729,0.60162 -0.77261,0.81459 -1.17835,0.98404 -0.40729,0.20675 -0.94205,0.44926 -1.56076,0.44926 h -2.1313 l -1.46438,4.82844 h 5.57462 c 2.89768,0 4.60924,-1.31826 5.87309,-3.04848 l 3.98898,-5.45958 0.85656,5.54353 c 0.18188,1.03844 0.92807,1.64627 1.4333,1.88256 0.55808,0.27982 1.13482,0.76018 1.9494,0.83168 0.87366,0.0373 1.50481,0.0669 1.92454,0.0669 h 2.73912 l 1.64471,-5.40362 h -1.08041 c -0.62027,0 -1.68824,-0.10416 -1.87012,-0.29847 -0.18189,-0.2363 -0.18189,-0.60006 -0.27982,-1.15348 l -0.869,-5.55597 h -3.55837 l 1.56077,-1.85769 h 8.76301 l 1.34779,-4.4087 h -8.1132 l 1.26385,-4.03251 h 8.08833 l 1.50014,-4.973011 h -24.1142 z m -73.18548,17.08188 2.02247,-6.7281 h 8.31219 l 1.5188,-5.0041 h -8.31996 l 1.27007,-4.14133 h 8.1303 l 1.50636,-4.84554 h -20.34286 l -1.47527,4.84554 h 4.62168 l -1.23275,4.14133 h -4.63412 l -1.5359,5.0896 h 4.62013 l -2.69559,8.90136 c -0.36377,1.17835 0.171,1.62761 0.50989,2.17482 0.34666,0.53321 0.69799,0.88609 1.4877,1.08663 0.81459,0.18188 1.37267,0.2907 2.13129,0.2907 h 9.37084 l 1.66959,-5.54353 -4.15376,0.57052 c -0.80215,0 -3.02361,-0.0964 -2.7811,-0.8379 z m 0.95341,-32.208444 -2.10642,3.807097 c -0.45082,0.831685 -0.85655,1.347796 -1.22187,1.585642 -0.3218,0.200537 -0.95916,0.284483 -1.88257,0.284483 h -1.09906 l -1.46905,4.87041 h 3.65008 c 1.75509,0 3.10289,-0.643584 3.74647,-0.965377 0.69178,-0.369983 0.87366,-0.158564 1.40842,-0.674675 l 1.23276,-1.067977 h 11.39797 l 1.51258,-5.070946 h -8.34328 l 1.45662,-2.768657 z m 16.82709,32.306224 c -0.19432,-0.27982 -0.0544,-0.77262 0.24251,-1.79862 l 3.11532,-10.31134 h 11.08239 c 1.61518,-0.0233 2.7811,-0.042 3.53972,-0.0964 0.81458,-0.0855 1.70068,-0.3762 2.66605,-0.89853 0.99647,-0.5472 1.50636,-1.12394 1.93697,-1.78618 0.48036,-0.66068 1.25142,-2.10642 1.91366,-4.33564 l 3.91591,-13.048909 -11.50057,0.06685 c 0,0 -3.54127,0.522329 -5.10048,1.099067 -1.57321,0.643585 -3.82109,2.440647 -3.82109,2.440647 l 1.03844,-3.577023 h -7.1043 l -9.94602,32.986018 c -0.35288,1.28095 -0.58917,2.21058 -0.64358,2.76866 -0.0187,0.60161 0.75862,1.197 1.26229,1.64627 0.5954,0.44927 1.47527,0.3762 2.31939,0.44927 0.88765,0.0668 2.14995,0.10881 3.8926,0.10881 h 5.45958 l 1.67581,-5.65856 -4.88751,0.4617 c -0.52233,0 -0.90008,-0.27982 -1.05709,-0.51611 z m 5.36786,-19.07435 h 11.64048 l -0.73996,2.31939 c -0.10416,0.0544 -0.35289,-0.11504 -1.53746,0.0249 h -10.07971 z m 2.33183,-7.778974 h 11.73842 l -0.84413,2.793529 c 0,0 -5.53264,-0.05441 -6.41874,0.108819 -3.89881,0.674675 -6.17623,2.757774 -6.17623,2.757774 z m 8.82923,17.865374 c -0.0964,0.34666 -0.24873,0.55808 -0.4617,0.71665 -0.2363,0.15234 -0.61871,0.20675 -1.18923,0.20675 h -1.65871 l 0.0979,-2.82462 h -6.8991 l -0.27982,13.80908 c -0.0109,0.99647 0.0855,1.57321 0.81458,2.03491 0.72909,0.57674 2.97541,0.6498 5.99902,0.6498 h 4.3232 l 1.56077,-5.16888 -3.76357,0.20675 -1.25141,0.0731 c -0.171,-0.0731 -0.33423,-0.13991 -0.51611,-0.32179 -0.15857,-0.15701 -0.42595,-0.0606 -0.38242,-1.0571 l 0.0295,-3.53971 3.947,-0.16323 c 2.13129,0 3.04226,-0.69333 3.81953,-1.35402 0.74153,-0.6327 0.98404,-1.36023 1.26386,-2.34426 l 0.66223,-3.13398 h -5.42383 z"
     id="path26797" /></g></svg>