<?xml version="1.0" encoding="UTF-8" standalone="no"?>
<!-- Generator: Adobe Illustrator 21.1.0, SVG Export Plug-In . SVG Version: 6.00 Build 0)  -->

<svg
   xmlns:dc="http://purl.org/dc/elements/1.1/"
   xmlns:cc="http://creativecommons.org/ns#"
   xmlns:rdf="http://www.w3.org/1999/02/22-rdf-syntax-ns#"
   xmlns:svg="http://www.w3.org/2000/svg"
   xmlns="http://www.w3.org/2000/svg"
   xmlns:sodipodi="http://sodipodi.sourceforge.net/DTD/sodipodi-0.dtd"
   xmlns:inkscape="http://www.inkscape.org/namespaces/inkscape"
   version="1.1"
   id="Layer_1"
   x="0px"
   y="0px"
   viewBox="0 0 38 24"
   style="enable-background:new 0 0 38 24;"
   xml:space="preserve"
   sodipodi:docname="viabill.svg"
   inkscape:version="0.92.2 2405546, 2018-03-11"><metadata
   id="metadata15"><rdf:RDF><cc:Work
       rdf:about=""><dc:format>image/svg+xml</dc:format><dc:type
         rdf:resource="http://purl.org/dc/dcmitype/StillImage" /><dc:title></dc:title></cc:Work></rdf:RDF></metadata><defs
   id="defs13" /><sodipodi:namedview
   pagecolor="#ffffff"
   bordercolor="#666666"
   borderopacity="1"
   objecttolerance="10"
   gridtolerance="10"
   guidetolerance="10"
   inkscape:pageopacity="0"
   inkscape:pageshadow="2"
   inkscape:window-width="1920"
   inkscape:window-height="1149"
   id="namedview11"
   showgrid="false"
   inkscape:zoom="8.0263158"
   inkscape:cx="3.2532496"
   inkscape:cy="23.872768"
   inkscape:window-x="1920"
   inkscape:window-y="27"
   inkscape:window-maximized="1"
   inkscape:current-layer="Layer_1" />
<style
   type="text/css"
   id="style2">
	.st0{opacity:7.000000e-02;enable-background:new    ;}
	.st1{fill:#FFFFFF;}
	.st2{fill:#0F2496;}
</style>
<path
   class="st0"
   d="M35,0H3C1.3,0,0,1.3,0,3v18c0,1.7,1.4,3,3,3h32c1.7,0,3-1.3,3-3V3C38,1.3,36.6,0,35,0z"
   id="path4" />
<path
   class="st1"
   d="M35,1c1.1,0,2,0.9,2,2v18c0,1.1-0.9,2-2,2H3c-1.1,0-2-0.9-2-2V3c0-1.1,0.9-2,2-2H35"
   id="path6" />

<path
   inkscape:connector-curvature="0"
   style="fill:#01b0ef;fill-opacity:1;fill-rule:nonzero;stroke:none;stroke-width:0.07920985"
   d="m 9.2877655,8.4398509 c -0.391717,0.01745 -0.756673,0.180747 -0.982421,0.673828 -0.665363,1.4574611 -1.338544,2.9059281 -2.003907,4.3554691 -0.07129,0.150498 -0.118273,0.349697 -0.324218,0.341797 -0.198025,-0.0079 -0.245118,-0.199111 -0.316407,-0.349609 -0.665362,-1.457463 -1.338543,-2.913633 -2.003906,-4.3710941 -0.07129,-0.142578 -0.15842,-0.269966 -0.285156,-0.38086 -0.324761,-0.277234 -0.705622,-0.293836 -1.09375,-0.230468 -0.23763,0.0396 -0.325195,0.223416 -0.253906,0.453125 0.02376,0.07129 0.05621,0.141602 0.08789,0.21289 0.934676,2.0356931 1.868058,4.0639171 2.802735,6.0996101 0.205945,0.451496 0.54731,0.681749 1.085937,0.673828 0.499022,0.02376 0.846572,-0.229494 1.068359,-0.728516 0.736652,-1.615881 1.48199,-3.223964 2.226563,-4.839844 0.205946,-0.4435751 0.41135,-0.8884561 0.609375,-1.3320311 0.1346565,-0.285155 0.04861,-0.515082 -0.220703,-0.554687 -0.132677,-0.0198 -0.265912,-0.02926 -0.396485,-0.02344 z m 2.5664085,0.01563 c -0.400629,0.01857 -0.774497,0.200766 -0.982422,0.658203 -0.9267575,2.0277721 -1.8620915,4.0640251 -2.8046895,6.0917971 -0.24555,0.514864 -0.0459,0.768338 0.453125,0.712891 0.554469,0.03168 0.901368,-0.237415 1.115235,-0.728516 0.6336795,-1.386172 1.2686655,-2.766279 1.9023445,-4.144531 0.308918,-0.657442 0.616971,-1.3209661 0.917969,-1.9863281 0.134657,-0.293077 0.06413,-0.522787 -0.197266,-0.570313 -0.134656,-0.02574 -0.270754,-0.03939 -0.404296,-0.0332 z m 2.867187,0 c -0.538627,-0.02376 -0.942058,0.158964 -1.179687,0.673828 l -2.828125,6.1542971 c -0.03169,0.06337 -0.05447,0.143554 -0.07031,0.214844 -0.04753,0.205945 0.06945,0.388457 0.275391,0.404297 0.570311,0.0396 1.061741,0.02213 1.402343,-0.738282 0.665363,-1.473302 1.356013,-2.938914 2.029297,-4.404296 0.05544,-0.126736 0.109048,-0.259766 0.275388,-0.259766 0.174262,0 0.221786,0.133138 0.285156,0.251953 0.01584,0.03168 0.02518,0.05621 0.04102,0.08789 0.665363,1.457461 1.338543,2.915586 2.003906,4.373047 0.213867,0.475259 0.553279,0.721025 1.083984,0.697265 0.08713,0 0.182294,0.0079 0.277344,0 0.229709,-0.02376 0.358077,-0.198135 0.310547,-0.419922 -0.01584,-0.07129 -0.0484,-0.143553 -0.08008,-0.214843 C 17.604936,13.23218 16.661898,11.180736 15.72722,9.1371219 15.529196,8.7014679 15.204541,8.4792439 14.721361,8.4554809 Z m 2.242188,0.07227 c -0.245571,0 -0.348957,0.149198 -0.253907,0.378906 0.06337,0.166341 0.135634,0.318143 0.214844,0.476563 0.150498,0.308918 0.395509,0.466797 0.751953,0.466797 0.839625,-0.0079 1.68772,-0.01584 2.527344,0 0.372287,0 0.751412,0.0087 1.076172,0.2304681 0.411889,0.285155 0.388888,0.838542 -0.05469,1.076172 -0.174261,0.09505 -0.356662,0.142491 -0.554687,0.150391 -0.562389,0.01584 -1.132923,0.0253 -1.695313,0.0332 h -0.658203 c -0.308915,0.0079 -0.404079,0.158203 -0.277344,0.443359 0.04753,0.110893 0.09505,0.213433 0.142579,0.316406 0.15842,0.380207 0.435655,0.562588 0.855468,0.554688 0.562389,-0.0079 1.132923,-2.15e-4 1.695313,0.01563 0.332682,0.0079 0.665799,0.04644 0.966797,0.220703 0.308918,0.182183 0.498262,0.44412 0.482422,0.816406 -0.01584,0.356444 -0.220271,0.59375 -0.53711,0.736328 -0.118815,0.05544 -0.238498,0.09538 -0.365234,0.119141 -0.475259,0.07129 -0.958226,0.07227 -1.441406,0.07227 -0.285134,0 -0.388238,0.166451 -0.277344,0.419922 0.07129,0.174262 0.151151,0.339519 0.238281,0.505859 0.134657,0.253472 0.331706,0.435869 0.640625,0.412109 0.372286,-0.03168 0.752713,-0.07129 1.125,-0.142578 0.657442,-0.126736 1.252171,-0.404515 1.664063,-0.958984 0.633678,-0.855467 0.483722,-2.075197 -0.324219,-2.859375 -0.253469,-0.253477 -0.277775,-0.364698 -0.103514,-0.689459 0.451497,-0.80794 0.141707,-2.0116121 -0.792969,-2.4472661 -0.475258,-0.213867 -0.965713,-0.316189 -1.472656,-0.332031 -0.578232,-0.02376 -1.156143,-0.0078 -1.734375,-0.0078 -0.609916,-0.0079 -1.220053,-0.01573 -1.83789,-0.0078 z m 14.99414,0 c -0.372286,0.02376 -0.53125,0.158964 -0.53125,0.53125 v 3.1835941 c 0,1.061411 8.8e-5,2.122181 -0.0078,3.183593 0,0.388128 0.174372,0.5625 0.5625,0.5625 h 3.652343 c 0.05545,0 0.118379,8.8e-5 0.173829,-0.0078 0.174258,-0.03168 0.24544,-0.158096 0.15039,-0.308594 -0.158419,-0.261393 -0.317274,-0.522571 -0.539062,-0.728516 -0.16634,-0.15842 -0.371746,-0.238281 -0.609375,-0.238281 h -1.50586 c -0.475259,0 -0.640625,-0.165474 -0.640625,-0.632812 0,-1.60796 -0.008,-3.216259 0.0078,-4.8242191 0.0079,-0.499022 -0.08713,-0.760308 -0.712891,-0.720703 z m -7.287109,0.0078 c -0.380207,0 -0.539063,0.158856 -0.539063,0.539063 v 3.1835931 c 0,1.069334 -8.7e-5,2.147464 0.0078,3.216797 0,0.32476 0.190865,0.513672 0.515625,0.513672 h 0.09375 c 0.48318,0 0.626953,-0.141711 0.626953,-0.632812 V 9.1214909 c 0,-0.05545 0.0079,-0.118381 0,-0.173828 -0.02375,-0.23763 -0.205609,-0.40419 -0.451159,-0.41211 z m 2.216797,0 c -0.348523,0.01584 -0.513672,0.166993 -0.513672,0.523438 v 3.1835941 c 0,1.061411 8.7e-5,2.122073 -0.0078,3.191406 0,0.388128 0.182185,0.5625 0.570313,0.5625 h 3.650391 c 0.04753,0 0.10286,0.0079 0.15039,0 0.190101,-0.03168 0.270831,-0.157987 0.175781,-0.316406 -0.158419,-0.261393 -0.317274,-0.522571 -0.539062,-0.728516 -0.174261,-0.15842 -0.389216,-0.238281 -0.634766,-0.238281 -0.499022,0.0079 -1.004883,0 -1.503906,0 -0.451496,0 -0.625,-0.181317 -0.625,-0.632813 0,-1.60796 -0.008,-3.216258 0.0078,-4.8242191 0.0079,-0.578232 -0.136395,-0.752387 -0.730469,-0.720703 z"
   id="path22" /></svg>