<?xml version="1.0" encoding="utf-8"?>
<!-- Generator: Adobe Illustrator 21.1.0, SVG Export Plug-In . SVG Version: 6.00 Build 0)  -->
<svg version="1.1" id="Layer_1" xmlns="http://www.w3.org/2000/svg" xmlns:xlink="http://www.w3.org/1999/xlink" x="0px" y="0px"
	 viewBox="0 0 38 24" style="enable-background:new 0 0 38 24;" xml:space="preserve">
<style type="text/css">
	.st0{opacity:7.000000e-02;enable-background:new    ;}
	.st1{fill:#FFFFFF;}
	.st2{fill:#0F2496;}
</style>
<path class="st0" d="M35,0H3C1.3,0,0,1.3,0,3v18c0,1.7,1.4,3,3,3h32c1.7,0,3-1.3,3-3V3C38,1.3,36.6,0,35,0z"/>
<path class="st1" d="M35,1c1.1,0,2,0.9,2,2v18c0,1.1-0.9,2-2,2H3c-1.1,0-2-0.9-2-2V3c0-1.1,0.9-2,2-2H35"/>
<path class="st2" d="M15.8,7.9L14.1,16h2.1L18,7.9H15.8z M29.5,7.9h-1.8c-0.4,0-0.8,0.2-0.9,0.6L23.6,16h2.2l0.4-1.2H29l0.3,1.2h2
	L29.5,7.9L29.5,7.9z M26.9,13.2l1.1-3.1l0.6,3.1H26.9L26.9,13.2z M12.7,7.9l-2.2,5.5L9.6,8.7c-0.1-0.5-0.5-0.8-1-0.8H5l0,0.2
	c0.7,0.2,1.6,0.4,2.1,0.7C7.4,9,7.5,9.1,7.6,9.5l1.7,6.5h2.2l3.4-8.1L12.7,7.9C12.7,7.9,12.7,7.9,12.7,7.9z M20.8,10.2
	c0-0.3,0.3-0.6,0.9-0.7c0.3,0,1.1-0.1,2.1,0.4l0.4-1.7c-0.5-0.2-1.2-0.4-2-0.4c-2.1,0-3.6,1.1-3.6,2.7c0,1.2,1.1,1.8,1.8,2.2
	c0.8,0.4,1.1,0.7,1.1,1c0,0.5-0.7,0.8-1.3,0.8c-1.1,0-1.7-0.3-2.2-0.5l-0.4,1.8c0.5,0.2,1.4,0.4,2.4,0.4c2.2,0,3.7-1.1,3.7-2.8
	C23.7,11.3,20.7,11.1,20.8,10.2L20.8,10.2z"/>
</svg>
