<?xml version="1.0" encoding="utf-8"?>
<!-- Generator: Adobe Illustrator 21.1.0, SVG Export Plug-In . SVG Version: 6.00 Build 0)  -->
<svg version="1.1" xmlns="http://www.w3.org/2000/svg" xmlns:xlink="http://www.w3.org/1999/xlink" x="0px" y="0px"
	 viewBox="0 0 38 24" style="enable-background:new 0 0 38 24;" xml:space="preserve">
<style type="text/css">
	.st0{display:none;opacity:7.000000e-02;enable-background:new    ;}
	.st1{display:none;fill:#FFFFFF;}
	.st2{display:none;fill:#0F2496;}
	.st3{fill:#1D5B99;}
	.st4{fill:#E7A83A;}
	.st5{fill:#FFFFFF;}
</style>
<g id="Layer_1">
	<path class="st0" d="M35,0H3C1.3,0,0,1.3,0,3v18c0,1.7,1.4,3,3,3h32c1.7,0,3-1.3,3-3V3C38,1.3,36.6,0,35,0z"/>
	<path class="st1" d="M35,1c1.1,0,2,0.9,2,2v18c0,1.1-0.9,2-2,2H3c-1.1,0-2-0.9-2-2V3c0-1.1,0.9-2,2-2H35"/>
	<path class="st2" d="M15.8,7.9L14.1,16h2.1L18,7.9H15.8z M29.5,7.9h-1.8c-0.4,0-0.8,0.2-0.9,0.6L23.6,16h2.2l0.4-1.2H29l0.3,1.2h2
		L29.5,7.9L29.5,7.9z M26.9,13.2l1.1-3.1l0.6,3.1L26.9,13.2L26.9,13.2z M12.7,7.9l-2.2,5.5L9.6,8.7c-0.1-0.5-0.5-0.8-1-0.8H5v0.2
		c0.7,0.2,1.6,0.4,2.1,0.7C7.4,9,7.5,9.1,7.6,9.5L9.3,16h2.2l3.4-8.1L12.7,7.9L12.7,7.9z M20.8,10.2c0-0.3,0.3-0.6,0.9-0.7
		c0.3,0,1.1-0.1,2.1,0.4l0.4-1.7c-0.5-0.2-1.2-0.4-2-0.4c-2.1,0-3.6,1.1-3.6,2.7c0,1.2,1.1,1.8,1.8,2.2c0.8,0.4,1.1,0.7,1.1,1
		c0,0.5-0.7,0.8-1.3,0.8c-1.1,0-1.7-0.3-2.2-0.5l-0.4,1.8c0.5,0.2,1.4,0.4,2.4,0.4c2.2,0,3.7-1.1,3.7-2.8
		C23.7,11.3,20.7,11.1,20.8,10.2L20.8,10.2z"/>
	<g>
		<g>
			<path class="st3" d="M2.3,0C1,0,0,0.9,0,2v20c0,1.1,1,2,2.3,2h33.2c1.4,0,2.5-0.9,2.5-2V2c0-1.1-1.1-2-2.5-2H2.3z"/>
		</g>
	</g>
</g>
<g id="Layer_2">
	<path class="st4" d="M11.9,13.7c3.3-1.4,7.9-2.7,14-1.4l0.1-1.6c-6.5-0.7-11.1,1.4-14.1,2.8V13.7z"/>
	<path class="st5" d="M5.9,14.9H9v0.9H7.1l0,0.9H9v0.9H7.1l0,0.9H9v0.9H5.9L5.9,14.9L5.9,14.9z M9.8,14.5H11l0,4.9H9.8L9.8,14.5
		L9.8,14.5z M14.8,19c-0.4,0.3-1,0.5-1.5,0.5c-1.2,0-1.7-0.8-1.7-1.7c0-1,0.7-1.8,1.8-1.8c1.2,0,1.6,0.9,1.6,2h-2.3
		c0,0.3,0.2,0.7,0.8,0.7c0.4,0,0.6-0.1,0.9-0.3L14.8,19L14.8,19z M14,17.3c0-0.3-0.2-0.6-0.5-0.6c-0.4,0-0.6,0.3-0.7,0.6H14z
		 M18.5,19.1c-0.3,0.2-0.8,0.3-1.2,0.3c-1,0-1.8-0.6-1.8-1.7c0-1.1,0.7-1.8,1.9-1.8c0.4,0,0.9,0.1,1.1,0.3L18.1,17
		c-0.2-0.1-0.4-0.1-0.5-0.1c-0.6,0-0.9,0.3-0.9,0.9c0,0.5,0.4,0.8,0.8,0.8c0.2,0,0.4-0.1,0.6-0.2L18.5,19.1L18.5,19.1z M18.9,16.1
		h0.5l0-1.1h1.1l0,1.1h0.9l0,0.8h-0.9c0,0.5,0,0.9,0,1.2c0,0.3,0.1,0.4,0.3,0.4c0.2,0,0.3-0.1,0.4-0.2l0.2,0.8
		c-0.3,0.2-0.7,0.3-1.1,0.3c-0.9,0-1-0.6-1-1.3c0-0.4,0-0.8,0-1.2h-0.5L18.9,16.1L18.9,16.1z M22,16.1h1.1v0.5h0
		c0.2-0.3,0.4-0.6,0.8-0.6c0.1,0,0.3,0,0.4,0l-0.1,1.1c-0.1,0-0.2-0.1-0.4-0.1c-0.4,0-0.7,0.3-0.7,0.4l0,1.9h-1.1L22,16.1L22,16.1z
		 M26.3,16c1.2,0,1.8,0.8,1.8,1.8c0,1-0.6,1.8-1.8,1.8c-1.2,0-1.8-0.8-1.8-1.8C24.5,16.7,25.1,16,26.3,16L26.3,16z M26.3,18.6
		c0.5,0,0.7-0.5,0.7-0.9c0-0.4-0.2-0.9-0.7-0.9c-0.5,0-0.7,0.5-0.7,0.9C25.6,18.1,25.8,18.6,26.3,18.6z M28.8,16.1h1.1v0.4
		c0.3-0.3,0.7-0.5,1.1-0.5c0.7,0,1.1,0.4,1.1,1.3c0,0.7,0,1.4,0,2.1h-1.1c0-0.6,0-1.3,0-1.9c0-0.3-0.1-0.5-0.4-0.5
		c-0.2,0-0.4,0.2-0.6,0.3l0,2.1h-1.2L28.8,16.1L28.8,16.1z M15.2,9.3l1.4-4.7h1.3l-1.4,4.7H15.2z M14.7,4.6l-1.1,2
		c-0.3,0.5-0.5,0.8-0.5,1.1h0c0-0.4,0-0.9,0-1.2l-0.1-1.9h-2.1l0,0.1c0.6,0,0.9,0.3,1,0.8L12,9.3h1.3L16,4.6H14.7z M24.6,9.3l0-0.7
		l-1.6,0l-0.3,0.7h-1.4l2.5-4.7h1.7l0.4,4.7L24.6,9.3L24.6,9.3L24.6,9.3z M24.4,6.6c0-0.3,0-0.8,0-1.1h0c-0.1,0.2-0.4,0.9-0.6,1.3
		l-0.5,1h1.1L24.4,6.6L24.4,6.6z M19.3,9.5c-0.9,0-1.5-0.3-1.9-0.5L18,8c0.4,0.2,0.7,0.5,1.4,0.5c0.2,0,0.4-0.1,0.6-0.3
		c0.2-0.3,0-0.5-0.5-0.8l-0.2-0.2c-0.7-0.5-1.1-1-0.7-1.8c0.2-0.5,0.8-0.9,1.8-0.9c0.7,0,1.3,0.3,1.7,0.6l-0.7,0.8
		c-0.4-0.3-0.7-0.4-1-0.4c-0.3,0-0.5,0.1-0.5,0.2c-0.1,0.3,0,0.4,0.4,0.7l0.3,0.2c0.9,0.6,1.1,1.2,0.9,1.7
		C20.8,9.3,20.1,9.5,19.3,9.5L19.3,9.5z"/>
</g>
</svg>
